<?xml version="1.0" encoding="UTF-8"?><svg id="Layer_1" xmlns="http://www.w3.org/2000/svg" viewBox="0 0 559.38 46.88"><defs><style>.cls-1{fill:#231f20;}</style></defs><path class="cls-1" d="M0,46.88v-3.12H15.62v3.12H0Zm3.12-12.5v-3.12H37.5v3.12H3.12Zm0,6.25v-3.12H12.5v3.12H3.12ZM6.25,3.12V0h28.12V3.12H6.25Zm0,18.75v-3.12H15.62v3.12H6.25Zm0,6.25v-3.12h28.12v3.12H6.25Zm3.12-18.75v-3.12H31.25v3.12H9.38Zm0,6.25v-3.12h9.38v3.12H9.38Zm12.5,0v-3.12h9.38v3.12h-9.38Zm3.12,6.25v-3.12h9.38v3.12h-9.38Zm0,25v-3.12h15.63v3.12h-15.63Zm3.12-6.25v-3.12h9.38v3.12h-9.38Z"/><path class="cls-1" d="M50,3.12V0h28.12V3.12h-28.12Zm0,43.75v-3.12h28.12v3.12h-28.12Zm3.12-37.5v-3.12h28.12v3.12h-28.12Zm0,6.25v-3.12h9.38v3.12h-9.38Zm0,6.25v-3.12h9.38v3.12h-9.38Zm0,6.25v-3.12h9.38v3.12h-9.38Zm0,6.25v-3.12h9.38v3.12h-9.38Zm0,6.25v-3.12h28.12v3.12h-28.12Zm18.75-25v-3.12h9.38v3.12h-9.38Zm0,6.25v-3.12h9.38v3.12h-9.38Zm0,6.25v-3.12h9.38v3.12h-9.38Zm0,6.25v-3.12h9.38v3.12h-9.38Z"/><path class="cls-1" d="M90.63,46.88v-3.12h15.62v3.12h-15.62Zm3.12-12.5v-3.12h34.38v3.12h-34.38Zm0,6.25v-3.12h9.38v3.12h-9.38Zm3.12-37.5V0h28.12V3.12h-28.12Zm0,18.75v-3.12h9.38v3.12h-9.38Zm0,6.25v-3.12h28.12v3.12h-28.12Zm3.12-18.75v-3.12h21.88v3.12h-21.88Zm0,6.25v-3.12h9.38v3.12h-9.38Zm12.5,0v-3.12h9.38v3.12h-9.38Zm3.12,6.25v-3.12h9.38v3.12h-9.38Zm0,25v-3.12h15.62v3.12h-15.62Zm3.12-6.25v-3.12h9.38v3.12h-9.38Z"/><path class="cls-1" d="M140.63,3.12V0h15.62V3.12h-15.62Zm0,6.25v-3.12h18.75v3.12h-18.75Zm0,31.25v-3.12h15.62v3.12h-15.62Zm0,6.25v-3.12h15.62v3.12h-15.62Zm3.12-31.25v-3.12h18.75v3.12h-18.75Zm0,6.25v-3.12h21.88v3.12h-21.88Zm0,6.25v-3.12h9.38v3.12h-9.38Zm0,6.25v-3.12h9.38v3.12h-9.38Zm12.5-6.25v-3.12h21.88v3.12h-21.88Zm3.12,6.25v-3.12h15.62v3.12h-15.62Zm3.12,6.25v-3.12h9.38v3.12h-9.38Zm3.12,6.25v-3.12h3.12v3.12h-3.12Zm3.12-25v-3.12h21.88v3.12h-21.88Zm3.12-6.25v-3.12h18.75v3.12h-18.75Zm3.12-6.25v-3.12h18.75v3.12h-18.75Zm3.12-6.25V0h15.62V3.12h-15.62Zm0,43.75v-3.12h15.62v3.12h-15.62Zm3.12-18.75v-3.12h9.38v3.12h-9.38Zm0,6.25v-3.12h9.38v3.12h-9.38Zm0,6.25v-3.12h9.38v3.12h-9.38Z"/><path class="cls-1" d="M225,9.38v-3.12h31.25v3.12h-31.25Zm0,6.25v-3.12h9.38v3.12h-9.38Zm0,25v-3.12h31.25v3.12h-31.25Zm0,6.25v-3.12h28.12v3.12h-28.12Zm3.12-43.75V0h28.12V3.12h-28.12Zm3.12,18.75v-3.12h12.5v3.12h-12.5Zm6.25,6.25v-3.12h12.5v3.12h-12.5Zm9.38,6.25v-3.12h9.38v3.12h-9.38Z"/><path class="cls-1" d="M265.63,9.38v-3.12h31.25v3.12h-31.25Zm0,6.25v-3.12h9.38v3.12h-9.38Zm0,6.25v-3.12h9.38v3.12h-9.38Zm0,6.25v-3.12h9.38v3.12h-9.38Zm0,6.25v-3.12h9.38v3.12h-9.38Zm0,6.25v-3.12h31.25v3.12h-31.25Zm3.12-37.5V0h25V3.12h-25Zm0,43.75v-3.12h25v3.12h-25Zm18.75-31.25v-3.12h9.38v3.12h-9.38Zm0,6.25v-3.12h9.38v3.12h-9.38Zm0,6.25v-3.12h9.38v3.12h-9.38Zm0,6.25v-3.12h9.38v3.12h-9.38Z"/><path class="cls-1" d="M306.25,9.38v-3.12h31.25v3.12h-31.25Zm0,6.25v-3.12h9.38v3.12h-9.38Zm0,6.25v-3.12h9.38v3.12h-9.38Zm0,6.25v-3.12h9.38v3.12h-9.38Zm0,6.25v-3.12h9.38v3.12h-9.38Zm0,6.25v-3.12h31.25v3.12h-31.25Zm3.12-37.5V0h28.12V3.12h-28.12Zm0,43.75v-3.12h28.12v3.12h-28.12Z"/><path class="cls-1" d="M346.88,3.12V0h15.62V3.12h-15.62Zm0,6.25v-3.12h15.62v3.12h-15.62Zm0,31.25v-3.12h15.62v3.12h-15.62Zm0,6.25v-3.12h15.62v3.12h-15.62Zm3.12-31.25v-3.12h9.38v3.12h-9.38Zm0,6.25v-3.12h34.38v3.12h-34.38Zm0,6.25v-3.12h34.38v3.12h-34.38Zm0,6.25v-3.12h9.38v3.12h-9.38Zm21.88-31.25V0h15.62V3.12h-15.62Zm0,6.25v-3.12h15.62v3.12h-15.62Zm0,31.25v-3.12h15.62v3.12h-15.62Zm0,6.25v-3.12h15.62v3.12h-15.62Zm3.12-31.25v-3.12h9.38v3.12h-9.38Zm0,18.75v-3.12h9.38v3.12h-9.38Z"/><path class="cls-1" d="M396.88,9.38v-3.12h31.25v3.12h-31.25Zm0,6.25v-3.12h9.38v3.12h-9.38Zm0,6.25v-3.12h9.38v3.12h-9.38Zm0,6.25v-3.12h9.38v3.12h-9.38Zm0,6.25v-3.12h9.38v3.12h-9.38Zm0,6.25v-3.12h31.25v3.12h-31.25Zm3.12-37.5V0h25V3.12h-25Zm0,43.75v-3.12h25v3.12h-25Zm18.75-31.25v-3.12h9.38v3.12h-9.38Zm0,6.25v-3.12h9.38v3.12h-9.38Zm0,6.25v-3.12h9.38v3.12h-9.38Zm0,6.25v-3.12h9.38v3.12h-9.38Z"/><path class="cls-1" d="M437.5,3.12V0h34.38V3.12h-34.38Zm0,6.25v-3.12h37.5v3.12h-37.5Zm0,31.25v-3.12h15.62v3.12h-15.62Zm0,6.25v-3.12h15.62v3.12h-15.62Zm3.12-31.25v-3.12h9.38v3.12h-9.38Zm0,6.25v-3.12h31.25v3.12h-31.25Zm0,6.25v-3.12h31.25v3.12h-31.25Zm0,6.25v-3.12h9.38v3.12h-9.38Zm21.88,6.25v-3.12h15.62v3.12h-15.62Zm0,6.25v-3.12h15.62v3.12h-15.62Zm3.12-31.25v-3.12h9.38v3.12h-9.38Zm0,18.75v-3.12h9.38v3.12h-9.38Z"/><path class="cls-1" d="M487.5,3.12V0h31.25V3.12h-31.25Zm0,6.25v-3.12h31.25v3.12h-31.25Zm0,31.25v-3.12h31.25v3.12h-31.25Zm0,6.25v-3.12h31.25v3.12h-31.25Zm3.12-31.25v-3.12h9.38v3.12h-9.38Zm0,6.25v-3.12h25v3.12h-25Zm0,6.25v-3.12h25v3.12h-25Zm0,6.25v-3.12h9.38v3.12h-9.38Z"/><path class="cls-1" d="M528.12,9.38v-3.12h31.25v3.12h-31.25Zm0,6.25v-3.12h9.38v3.12h-9.38Zm0,6.25v-3.12h9.38v3.12h-9.38Zm0,6.25v-3.12h9.38v3.12h-9.38Zm0,6.25v-3.12h9.38v3.12h-9.38Zm0,6.25v-3.12h31.25v3.12h-31.25Zm3.12-37.5V0h28.12V3.12h-28.12Zm0,43.75v-3.12h28.12v3.12h-28.12Z"/></svg>