<?xml version="1.0" encoding="UTF-8"?><svg id="a" xmlns="http://www.w3.org/2000/svg" xmlns:xlink="http://www.w3.org/1999/xlink" viewBox="0 0 450 300"><defs><clipPath id="b"><circle cx="150" cy="150" r="150" style="fill:none;"/></clipPath></defs><g style="clip-path:url(#b);"><g><rect id="c" width="450" height="300" style="fill:#de2910;"/><polygon id="d" points="75 30 101.45 111.41 32.2 61.09 117.8 61.09 48.55 111.41 75 30" style="fill:#ffde00;"/><polygon id="e" points="137.14 37.72 155.87 16.2 153.36 44.62 138.69 20.15 164.94 31.32 137.14 37.72" style="fill:#ffde00;"/><polygon id="f" points="165.15 62.12 190.77 49.56 177.43 74.78 173.39 46.53 193.26 67.01 165.15 62.12" style="fill:#ffde00;"/><polygon id="g" points="165.58 100.88 194.09 99.86 171.62 117.44 179.46 90.01 189.25 116.81 165.58 100.88" style="fill:#ffde00;"/><polygon id="h" points="138.29 125.63 164.98 135.7 137.47 143.24 155.29 120.96 153.97 149.47 138.29 125.63" style="fill:#ffde00;"/></g></g></svg>