<?xml version="1.0" encoding="UTF-8"?><svg id="a" xmlns="http://www.w3.org/2000/svg" xmlns:xlink="http://www.w3.org/1999/xlink" viewBox="0 0 450 300"><defs><clipPath id="b"><circle cx="195" cy="150" r="150" style="fill:none;"/></clipPath><clipPath id="i"><path id="j" d="M158.13,225c-24.67-11.88-59.96-35.47-59.96-82.13s2.23-67.87,2.23-67.87h115.46s2.23,21.22,2.23,67.87-35.29,70.24-59.96,82.13Z" style="fill:none;"/></clipPath></defs><g style="clip-path:url(#b);"><g><rect id="c" width="450" height="300" style="fill:#ee1c25;"/><rect id="d" width="450" height="200" style="fill:#0b4ea2;"/><rect id="e" width="450" height="100" style="fill:#fff;"/><path id="f" d="M158.13,231.75c-26.89-12.95-65.35-38.66-65.35-89.52s2.43-73.98,2.43-73.98h125.85s2.43,23.13,2.43,73.98-38.46,76.56-65.36,89.52Z" style="fill:#fff;"/><path id="g" d="M158.13,225c-24.67-11.88-59.96-35.47-59.96-82.13s2.23-67.87,2.23-67.87h115.46s2.23,21.22,2.23,67.87-35.29,70.24-59.96,82.13Z" style="fill:#ee1c25;"/><g id="h"><g style="clip-path:url(#i);"><path id="k" d="M163.4,130.64c6.68,.11,19.71,.37,31.32-3.51,0,0-.31,4.15-.31,8.99s.31,8.99,.31,8.99c-10.64-3.56-23.79-3.64-31.32-3.54v25.77h-10.55v-25.77c-7.53-.1-20.67-.02-31.32,3.54,0,0,.31-4.15,.31-8.99s-.31-8.99-.31-8.99c11.6,3.88,24.64,3.62,31.32,3.51v-16.18c-6.09-.05-14.86,.24-24.78,3.56,0,0,.31-4.15,.31-8.99s-.31-8.99-.31-8.99c9.91,3.31,18.67,3.61,24.75,3.56-.31-10.25-3.3-23.17-3.3-23.17,0,0,6.14,.48,8.6,.48s8.6-.48,8.6-.48c0,0-2.98,12.92-3.3,23.17,6.09,.05,14.85-.24,24.75-3.56,0,0-.31,4.15-.31,8.99s.31,8.99,.31,8.99c-9.92-3.32-18.69-3.61-24.78-3.56v16.18Z" style="fill:#fff;"/><path id="l" d="M157.04,240.31l-51.12-45.56s6.54-21.14,19.29-21.14c10.14,0,13.84,8.17,13.84,8.17,0,0,6.65-17.23,19.08-17.23s19.08,17.23,19.08,17.23c0,0,3.7-8.17,13.83-8.17,12.76,0,19.29,21.14,19.29,21.14l-53.29,45.56Z" style="fill:#0b4ea2;"/></g></g></g></g></svg>