<?xml version="1.0" encoding="UTF-8"?><svg id="a" xmlns="http://www.w3.org/2000/svg" xmlns:xlink="http://www.w3.org/1999/xlink" viewBox="0 0 600 300"><defs><clipPath id="b"><circle cx="300" cy="150" r="150" style="fill:none;"/></clipPath></defs><g style="clip-path:url(#b);"><g><rect id="c" x="0" y="0" width="599.69" height="299.97" style="fill:#fff;"/><polygon id="d" points="269.86 179.89 269.86 299.97 329.83 299.97 329.83 179.89 599.69 179.89 599.69 119.92 329.83 119.92 329.83 0 269.86 0 269.86 119.92 0 119.92 0 179.89 269.86 179.89" style="fill:#cf142b;"/><polygon id="e" points="349.83 97.1 349.83 0 543.99 0 349.83 97.1" style="fill:#00247d;"/><polygon id="f" points="349.83 202.87 349.83 299.97 543.99 299.97 349.83 202.87" style="fill:#00247d;"/><polygon id="g" points="249.86 202.87 249.86 299.97 55.7 299.97 249.86 202.87" style="fill:#00247d;"/><polygon id="h" points="249.86 97.1 249.86 0 55.7 0 249.86 97.1" style="fill:#00247d;"/><polygon id="i" points="0 27.88 0 99.99 144.18 99.99 0 27.88" style="fill:#00247d;"/><polygon id="j" points="599.69 27.88 599.69 99.99 455.51 99.99 599.69 27.88" style="fill:#00247d;"/><polygon id="k" points="599.69 272.08 599.69 199.98 455.51 199.98 599.69 272.08" style="fill:#00247d;"/><polygon id="l" points="0 272.08 0 199.98 144.18 199.98 0 272.08" style="fill:#00247d;"/><polyline id="m" points="599.69 0 566.38 0 366.8 99.99 400.11 99.99 600 0" style="fill:#cf142b;"/><polyline id="n" points="232.89 199.97 199.58 199.98 0 299.96 33.31 299.96 233.2 199.97" style="fill:#cf142b;"/><polygon id="o" points="166.53 100.06 199.84 100.06 0 0 0 16.77 166.53 100.06" style="fill:#cf142b;"/><polygon id="p" points="433.05 199.94 399.74 199.94 599.58 300 599.58 283.23 433.05 199.94" style="fill:#cf142b;"/></g></g></svg>