<svg width="815" height="815" viewBox="0 0 815 815" fill="none" xmlns="http://www.w3.org/2000/svg">
<g filter="url(#filter0_d_30_3639)">
<rect x="10" y="10" width="795" height="795" rx="397.5" fill="white"/>
<g filter="url(#filter1_d_30_3639)">
<path d="M633.822 657.791C602.074 644.931 568.434 638.397 534.641 638.397C518.236 638.397 501.77 639.934 485.472 643.041L484.842 643.169C484.842 643.169 498.356 595.733 489.485 564.585C472.727 505.778 325.515 407.415 325.515 407.415C325.515 407.415 233.082 340.281 198.182 296.336C173.398 265.107 181.177 157.055 181.177 157.055C212.926 169.915 246.566 176.449 280.359 176.449C296.764 176.449 313.23 174.911 329.527 171.805L330.158 171.676C330.158 171.676 316.643 219.112 325.515 250.261C342.273 309.068 489.485 407.431 489.485 407.431C489.485 407.431 581.918 474.565 616.818 518.51C641.602 549.739 633.822 657.791 633.822 657.791Z" fill="#C71E1E"/>
<path d="M634.98 387.348V171.661H410.663C410.663 171.661 376.147 243.551 634.98 387.348Z" fill="#C71E1E"/>
<path d="M180.021 427.481V643.169H404.337C404.337 643.169 438.853 571.279 180.021 427.481Z" fill="#C71E1E"/>
</g>
</g>
<defs>
<filter id="filter0_d_30_3639" x="0" y="0" width="815" height="815" filterUnits="userSpaceOnUse" color-interpolation-filters="sRGB">
<feFlood flood-opacity="0" result="BackgroundImageFix"/>
<feColorMatrix in="SourceAlpha" type="matrix" values="0 0 0 0 0 0 0 0 0 0 0 0 0 0 0 0 0 0 127 0" result="hardAlpha"/>
<feOffset/>
<feGaussianBlur stdDeviation="5"/>
<feComposite in2="hardAlpha" operator="out"/>
<feColorMatrix type="matrix" values="0 0 0 0 0 0 0 0 0 0 0 0 0 0 0 0 0 0 0.25 0"/>
<feBlend mode="normal" in2="BackgroundImageFix" result="effect1_dropShadow_30_3639"/>
<feBlend mode="normal" in="SourceGraphic" in2="effect1_dropShadow_30_3639" result="shape"/>
</filter>
<filter id="filter1_d_30_3639" x="170.02" y="147.055" width="474.959" height="520.89" filterUnits="userSpaceOnUse" color-interpolation-filters="sRGB">
<feFlood flood-opacity="0" result="BackgroundImageFix"/>
<feColorMatrix in="SourceAlpha" type="matrix" values="0 0 0 0 0 0 0 0 0 0 0 0 0 0 0 0 0 0 127 0" result="hardAlpha"/>
<feOffset/>
<feGaussianBlur stdDeviation="5"/>
<feComposite in2="hardAlpha" operator="out"/>
<feColorMatrix type="matrix" values="0 0 0 0 0 0 0 0 0 0 0 0 0 0 0 0 0 0 0.25 0"/>
<feBlend mode="normal" in2="BackgroundImageFix" result="effect1_dropShadow_30_3639"/>
<feBlend mode="normal" in="SourceGraphic" in2="effect1_dropShadow_30_3639" result="shape"/>
</filter>
</defs>
</svg>
