<svg width="816" height="815" viewBox="0 0 816 815" fill="none" xmlns="http://www.w3.org/2000/svg">
<g filter="url(#filter0_d_30_3628)">
<rect x="10" y="10" width="796" height="795" rx="167" fill="#282828"/>
<g filter="url(#filter1_d_30_3628)">
<path d="M636.295 666.937C633.149 632.557 630.281 598.176 626.689 563.824C624.489 542.702 615.411 524.447 601.433 508.775C569.856 473.316 530.678 447.168 493.894 418.153C455.245 387.662 415.481 358.647 377.361 327.503C339.909 296.927 321.865 256.982 329.077 207.242C330.135 199.917 332.418 192.791 334.479 184.104C282.408 194.523 231.451 200.428 183.083 170.59C182.666 173.798 182.137 175.7 182.248 177.574C183.863 207.441 185.311 237.279 187.344 267.117C189.237 294.996 200.598 318.56 221.621 336.418C246.905 357.881 272.829 378.521 298.642 399.331C346.953 438.254 395.6 476.751 443.661 515.986C475.711 542.162 488.603 576.145 482.171 618.049C480.64 628.014 477.381 634.487 472.815 637.468C472.564 639.03 472.23 640.563 471.868 642.068C494.645 641.528 517.423 638.519 540.173 638.916C574.645 639.512 607.113 648.257 635.71 671.48C636.072 668.953 636.406 667.959 636.295 666.994V666.937Z" fill="#C71E1E"/>
<path d="M182.233 440.069V655.952H406.743C406.743 655.952 441.271 583.991 182.233 440.069Z" fill="#C71E1E"/>
<path d="M636.317 404.506V187.62H409.816C409.816 187.62 374.982 259.915 636.317 404.506Z" fill="#C71E1E"/>
</g>
</g>
<defs>
<filter id="filter0_d_30_3628" x="0" y="0" width="816" height="815" filterUnits="userSpaceOnUse" color-interpolation-filters="sRGB">
<feFlood flood-opacity="0" result="BackgroundImageFix"/>
<feColorMatrix in="SourceAlpha" type="matrix" values="0 0 0 0 0 0 0 0 0 0 0 0 0 0 0 0 0 0 127 0" result="hardAlpha"/>
<feOffset/>
<feGaussianBlur stdDeviation="5"/>
<feComposite in2="hardAlpha" operator="out"/>
<feColorMatrix type="matrix" values="0 0 0 0 0 0 0 0 0 0 0 0 0 0 0 0 0 0 0.25 0"/>
<feBlend mode="normal" in2="BackgroundImageFix" result="effect1_dropShadow_30_3628"/>
<feBlend mode="normal" in="SourceGraphic" in2="effect1_dropShadow_30_3628" result="shape"/>
</filter>
<filter id="filter1_d_30_3628" x="170.729" y="160.59" width="475.588" height="520.89" filterUnits="userSpaceOnUse" color-interpolation-filters="sRGB">
<feFlood flood-opacity="0" result="BackgroundImageFix"/>
<feColorMatrix in="SourceAlpha" type="matrix" values="0 0 0 0 0 0 0 0 0 0 0 0 0 0 0 0 0 0 127 0" result="hardAlpha"/>
<feOffset/>
<feGaussianBlur stdDeviation="5"/>
<feComposite in2="hardAlpha" operator="out"/>
<feColorMatrix type="matrix" values="0 0 0 0 0 0 0 0 0 0 0 0 0 0 0 0 0 0 0.25 0"/>
<feBlend mode="normal" in2="BackgroundImageFix" result="effect1_dropShadow_30_3628"/>
<feBlend mode="normal" in="SourceGraphic" in2="effect1_dropShadow_30_3628" result="shape"/>
</filter>
</defs>
</svg>
