<svg width="815" height="815" viewBox="0 0 815 815" fill="none" xmlns="http://www.w3.org/2000/svg">
<g filter="url(#filter0_d_29_676)">
<rect x="10" y="10" width="795" height="795" rx="167" fill="white"/>
<g filter="url(#filter1_d_29_676)">
<path d="M635.508 666.937C632.366 632.557 629.501 598.176 625.914 563.824C623.717 542.702 614.65 524.447 600.69 508.775C569.153 473.316 530.024 447.168 493.286 418.153C454.685 387.662 414.972 358.647 376.899 327.503C339.494 296.927 321.473 256.982 328.676 207.242C329.733 199.917 332.013 192.791 334.071 184.104C282.066 194.523 231.173 200.428 182.866 170.59C182.449 173.798 181.92 175.7 182.032 177.574C183.645 207.441 185.091 237.279 187.121 267.117C189.012 294.996 200.359 318.56 221.356 336.418C246.607 357.881 272.499 378.521 298.279 399.331C346.53 438.254 395.115 476.751 443.116 515.986C475.126 542.162 488.002 576.145 481.578 618.049C480.048 628.014 476.794 634.487 472.233 637.468C471.983 639.03 471.649 640.563 471.288 642.068C494.037 641.528 516.786 638.519 539.507 638.916C573.936 639.512 606.363 648.257 634.924 671.48C635.286 668.953 635.62 667.959 635.508 666.994V666.937Z" fill="#C71E1E"/>
<path d="M182.017 440.069V655.952H406.245C406.245 655.952 440.729 583.991 182.017 440.069Z" fill="#C71E1E"/>
<path d="M635.53 404.506V187.62H409.314C409.314 187.62 374.524 259.915 635.53 404.506Z" fill="#C71E1E"/>
</g>
</g>
<defs>
<filter id="filter0_d_29_676" x="0" y="0" width="815" height="815" filterUnits="userSpaceOnUse" color-interpolation-filters="sRGB">
<feFlood flood-opacity="0" result="BackgroundImageFix"/>
<feColorMatrix in="SourceAlpha" type="matrix" values="0 0 0 0 0 0 0 0 0 0 0 0 0 0 0 0 0 0 127 0" result="hardAlpha"/>
<feOffset/>
<feGaussianBlur stdDeviation="5"/>
<feComposite in2="hardAlpha" operator="out"/>
<feColorMatrix type="matrix" values="0 0 0 0 0 0 0 0 0 0 0 0 0 0 0 0 0 0 0.25 0"/>
<feBlend mode="normal" in2="BackgroundImageFix" result="effect1_dropShadow_29_676"/>
<feBlend mode="normal" in="SourceGraphic" in2="effect1_dropShadow_29_676" result="shape"/>
</filter>
<filter id="filter1_d_29_676" x="170.515" y="160.59" width="475.015" height="520.89" filterUnits="userSpaceOnUse" color-interpolation-filters="sRGB">
<feFlood flood-opacity="0" result="BackgroundImageFix"/>
<feColorMatrix in="SourceAlpha" type="matrix" values="0 0 0 0 0 0 0 0 0 0 0 0 0 0 0 0 0 0 127 0" result="hardAlpha"/>
<feOffset/>
<feGaussianBlur stdDeviation="5"/>
<feComposite in2="hardAlpha" operator="out"/>
<feColorMatrix type="matrix" values="0 0 0 0 0 0 0 0 0 0 0 0 0 0 0 0 0 0 0.25 0"/>
<feBlend mode="normal" in2="BackgroundImageFix" result="effect1_dropShadow_29_676"/>
<feBlend mode="normal" in="SourceGraphic" in2="effect1_dropShadow_29_676" result="shape"/>
</filter>
</defs>
</svg>
