<svg width="2898" height="542" viewBox="0 0 2898 542" fill="none" xmlns="http://www.w3.org/2000/svg">
<g filter="url(#filter0_d_54_15974)">
<path d="M710.559 154.58C709.724 153.76 707.456 152.236 703.697 150.009C699.938 147.782 695.283 145.379 689.674 142.976C684.065 140.515 677.919 138.405 671.236 136.53C664.552 134.654 657.929 133.775 651.246 133.775C642.474 133.775 635.791 135.299 631.077 138.346C626.363 141.394 624.036 145.907 624.036 151.826C624.036 155.518 625.05 158.565 627.138 161.027C629.227 163.488 632.211 165.657 636.03 167.591C639.908 169.525 644.682 171.342 650.41 172.983C656.139 174.624 662.762 176.44 670.221 178.492C680.843 181.363 690.39 184.469 698.923 187.869C707.456 191.268 714.736 195.429 720.763 200.469C726.79 205.45 731.444 211.545 734.667 218.695C737.889 225.845 739.5 234.46 739.5 244.423C739.5 256.672 737.173 267.045 732.459 275.543C727.745 284.041 721.598 290.898 713.901 296.114C706.203 301.33 697.312 305.139 687.228 307.484C677.143 309.828 666.76 310 656.139 310C648.024 310 639.729 310.414 631.316 309.183C622.902 307.952 614.607 306.194 606.492 303.791C598.377 301.447 590.441 298.634 582.743 295.352C575.045 292.07 567.944 288.319 561.5 283.983L583.996 240.145C585.01 241.2 587.815 243.134 592.41 245.947C597.004 248.819 602.614 251.691 609.297 254.504C615.98 257.375 623.439 259.895 631.793 262.181C640.087 264.408 648.561 265.58 657.094 265.58C675.174 265.58 684.244 260.189 684.244 249.346C684.244 245.244 682.872 241.903 680.186 239.207C677.501 236.57 673.742 234.167 668.968 231.999C664.194 229.831 658.585 227.838 652.081 226.021C645.577 224.204 638.536 222.153 630.838 219.867C620.634 216.82 611.803 213.479 604.284 209.904C596.766 206.329 590.56 202.168 585.547 197.48C580.535 192.791 576.835 187.341 574.449 181.246C572.062 175.092 570.868 167.942 570.868 159.796C570.868 148.368 573.076 138.229 577.432 129.438C581.788 120.647 587.755 113.263 595.214 107.227C602.673 101.19 611.385 96.6188 621.291 93.5713C631.196 90.5238 641.639 89 652.678 89C660.614 89 668.312 89.7033 675.771 91.1684C683.289 92.575 690.39 94.4504 697.133 96.6774C703.876 98.9044 710.321 101.483 716.347 104.355C722.374 107.227 727.804 110.098 732.578 112.911L710.44 154.639L710.559 154.58Z" fill="#282828"/>
<path d="M787.657 309.87V88.8445H838.705V265.011H945.796V309.87H787.657Z" fill="#282828"/>
<path d="M967.929 309.87L1052.89 88.8445H1094.3L1178.96 309.87H1124.82L1107.68 260.37H1038.91L1022.07 309.87H967.929ZM1073.41 143.045L1046.94 225.208H1098.94L1073.41 143.045Z" fill="#282828"/>
<path d="M1232.51 88.8445L1284.8 245.734L1336.15 88.8445H1389.99L1305.92 309.87H1263.26L1178.6 88.8445H1232.45H1232.51Z" fill="#282828"/>
<path d="M1428.9 309.87V88.8445H1479.95V309.87H1428.9Z" fill="#282828"/>
<path d="M1527.8 196.878C1527.8 183.732 1530.18 170.587 1534.93 157.559C1539.69 144.532 1546.65 132.86 1555.75 122.544C1564.91 112.287 1576.03 103.916 1589.18 97.5497C1602.32 91.1832 1617.31 88 1634.14 88C1653.83 88 1670.96 92.4211 1685.47 101.263C1699.98 110.106 1710.81 121.601 1717.82 135.807L1678.63 162.924C1676.37 157.147 1673.45 152.372 1669.95 148.599C1666.44 144.767 1662.57 141.702 1658.41 139.344C1654.24 136.986 1649.96 135.336 1645.5 134.392C1641.04 133.449 1636.82 132.978 1632.89 132.978C1623.73 132.978 1615.88 134.923 1609.22 138.814C1602.56 142.704 1597.09 147.774 1592.75 153.904C1588.4 160.035 1585.13 167.05 1582.93 174.89C1580.73 182.73 1579.66 190.629 1579.66 198.646C1579.66 207.253 1580.97 215.623 1583.53 223.64C1586.14 231.657 1589.77 238.731 1594.41 244.921C1599.05 251.11 1604.7 256.003 1611.36 259.599C1618.02 263.195 1625.34 265.022 1633.43 265.022C1637.59 265.022 1641.87 264.433 1646.33 263.313C1650.79 262.193 1655.08 260.424 1659.24 258.066C1663.4 255.708 1667.15 252.643 1670.42 248.811C1673.75 244.98 1676.43 240.323 1678.51 234.782L1720.5 259.127C1717.17 267.144 1712.35 274.336 1706.05 280.703C1699.74 287.069 1692.49 292.433 1684.4 296.737C1676.31 301.04 1667.74 304.341 1658.7 306.581C1649.66 308.821 1640.8 310 1632.12 310C1616.77 310 1602.74 306.758 1589.95 300.274C1577.22 293.789 1566.22 285.242 1556.94 274.513C1547.72 263.843 1540.53 251.7 1535.29 238.142C1530.12 224.584 1527.5 210.79 1527.5 196.819L1527.8 196.878Z" fill="#282828"/>
<path d="M2031.53 309.87V177.552L1983.58 273.756H1956.21L1908.25 177.552V309.87H1857.21V88.8445H1912.6L1969.89 204.325L2027.48 88.8445H2082.58V309.87H2031.53Z" fill="#282828"/>
<path d="M2298.96 265.011V309.811H2143.62V88.8445H2296.17V133.645H2194.67V176.6H2281.83V218.009H2194.67V265.011H2298.96Z" fill="#282828"/>
<path d="M2349.35 309.87V88.8445H2431.87C2450.14 88.8445 2466.08 91.7598 2479.83 97.5903C2493.51 103.421 2504.99 111.274 2514.22 121.27C2523.44 131.205 2530.4 142.926 2535.04 156.312C2539.74 169.699 2542.06 183.978 2542.06 199.09C2542.06 215.927 2539.44 231.098 2534.27 244.723C2529.09 258.288 2521.65 269.949 2512.01 279.587C2502.38 289.225 2490.72 296.722 2477.15 302.017C2463.53 307.312 2448.47 309.93 2431.87 309.93H2349.35V309.87ZM2490.06 199.03C2490.06 189.273 2488.75 180.408 2486.19 172.436C2483.58 164.463 2479.83 157.562 2474.83 151.731C2469.83 145.901 2463.7 141.438 2456.45 138.345C2449.19 135.251 2440.98 133.645 2431.87 133.645H2400.46V265.011H2431.87C2441.22 265.011 2449.49 263.345 2456.8 260.013C2464.06 256.681 2470.13 252.1 2475.01 246.151C2479.89 240.26 2483.64 233.3 2486.19 225.268C2488.81 217.295 2490.06 208.49 2490.06 198.971V199.03Z" fill="#282828"/>
<path d="M2591.2 309.87V88.8445H2642.25V309.87H2591.2Z" fill="#282828"/>
<path d="M2681.5 310L2764.43 89H2804.86L2887.5 310H2834.65L2817.92 260.506H2750.79L2734.35 310H2681.5ZM2784.47 143.194L2758.63 225.348H2809.39L2784.47 143.194Z" fill="#282828"/>
<path d="M574.113 378.536L594.341 415.066L614.689 378.536H627.242L600.112 425.359V452H588.511V425.121L561.5 378.476H574.113V378.536Z" fill="#282828"/>
<path d="M719.833 452C714.716 452 710.016 450.882 705.792 448.8C701.567 446.717 697.938 443.921 694.904 440.47C691.87 437.02 689.49 433.033 687.884 428.631C686.277 424.228 685.444 419.647 685.444 414.947C685.444 410.247 686.337 405.427 688.062 400.965C689.787 396.503 692.227 392.576 695.32 389.185C698.414 385.734 702.043 383.057 706.327 381.034C710.551 379.011 715.192 378.5 720.19 378.5C725.187 378.5 730.006 379.071 734.231 381.213C738.455 383.355 742.084 386.21 745.059 389.661C748.093 393.171 750.413 397.098 752.02 401.501C753.626 405.903 754.459 410.425 754.459 415.006C754.459 419.885 753.567 424.525 751.841 428.988C750.116 433.45 747.676 437.377 744.583 440.768C741.489 444.159 737.86 446.836 733.636 448.859C729.411 450.882 724.83 452 719.833 452ZM697.165 414.947C697.165 418.397 697.7 421.67 698.771 424.882C699.842 428.095 701.33 430.951 703.352 433.39C705.375 435.83 707.755 437.852 710.551 439.28C713.348 440.768 716.501 441.482 720.011 441.482C723.521 441.482 726.794 440.708 729.59 439.161C732.386 437.614 734.825 435.592 736.789 433.033C738.752 430.475 740.24 427.679 741.251 424.525C742.262 421.372 742.798 418.159 742.798 414.887C742.798 411.377 742.262 408.045 741.132 404.892C740.061 401.679 738.514 398.883 736.491 396.444C734.528 394.004 732.089 392.041 729.292 390.613C726.496 389.126 723.343 388.412 719.952 388.412C716.56 388.412 713.169 389.185 710.373 390.732C707.517 392.279 705.137 394.302 703.174 396.741C701.211 399.18 699.723 402.036 698.712 405.189C697.7 408.343 697.165 411.615 697.165 414.887V414.947Z" fill="#282828"/>
<path d="M853.913 441.506C857.721 441.506 860.934 440.732 863.492 439.245C865.991 437.758 868.073 435.794 869.62 433.355C871.167 430.915 872.238 428.179 872.893 425.025C873.547 421.932 873.845 418.719 873.845 415.447V378.5H885.446V415.447C885.446 420.444 884.851 425.144 883.721 429.547C882.531 433.95 880.686 437.817 878.188 441.149C875.629 444.481 872.357 447.098 868.371 449.002C864.385 450.906 859.566 451.858 853.973 451.858C848.38 451.858 843.264 450.846 839.218 448.824C835.232 446.801 831.96 444.124 829.52 440.732C827.081 437.341 825.296 433.474 824.166 429.071C823.095 424.668 822.5 420.147 822.5 415.387V378.44H833.983V415.387C833.983 418.719 834.28 421.991 834.934 425.085C835.589 428.179 836.66 430.975 838.207 433.414C839.754 435.854 841.776 437.817 844.394 439.245C846.953 440.732 850.106 441.446 853.913 441.446V441.506Z" fill="#282828"/>
<path d="M956.863 452V378.999H988.574C991.846 378.999 994.88 379.713 997.676 381.081C1000.47 382.45 1002.85 384.234 1004.82 386.495C1006.78 388.697 1008.39 391.255 1009.52 394.111C1010.65 396.966 1011.24 399.822 1011.24 402.797C1011.24 405.236 1010.88 407.616 1010.23 409.877C1009.58 412.138 1008.56 414.22 1007.37 416.124C1006.12 418.028 1004.64 419.694 1002.85 421.122C1001.07 422.549 999.104 423.561 997.022 424.275L1014.39 452H1001.37L985.361 426.655H968.524V452H957.041H956.863ZM968.345 416.362H988.455C990.121 416.362 991.608 416.005 992.917 415.291C994.226 414.577 995.416 413.566 996.368 412.316C997.32 411.067 998.093 409.579 998.628 407.973C999.164 406.307 999.461 404.582 999.461 402.738C999.461 400.893 999.164 399.168 998.509 397.502C997.855 395.836 997.022 394.408 995.951 393.159C994.88 391.909 993.631 390.957 992.262 390.243C990.834 389.529 989.407 389.173 987.919 389.173H968.405V416.362H968.345Z" fill="#282828"/>
<path d="M1194 452C1188.88 452 1184.25 450.882 1180.03 448.8C1175.81 446.717 1172.18 443.921 1169.14 440.47C1166.11 437.02 1163.73 433.033 1162.12 428.631C1160.52 424.228 1159.68 419.647 1159.68 414.947C1159.68 410.247 1160.58 405.427 1162.3 400.965C1164.03 396.503 1166.47 392.576 1169.56 389.185C1172.65 385.734 1176.28 383.057 1180.57 381.034C1184.79 379.011 1189.5 378.5 1194.5 378.5C1199.5 378.5 1204.24 379.071 1208.47 381.213C1212.69 383.355 1216.32 386.21 1219.3 389.661C1222.33 393.171 1224.65 397.098 1226.26 401.501C1227.86 405.903 1228.7 410.425 1228.7 415.006C1228.7 419.885 1227.8 424.525 1226.08 428.988C1224.35 433.45 1221.91 437.377 1218.82 440.768C1215.73 444.159 1212.1 446.836 1207.87 448.859C1203.65 450.882 1199 452 1194 452ZM1171.4 414.947C1171.4 418.397 1171.94 421.67 1173.01 424.882C1174.08 428.095 1175.57 430.951 1177.59 433.39C1179.61 435.83 1181.99 437.852 1184.79 439.28C1187.59 440.768 1190.74 441.482 1194.25 441.482C1197.76 441.482 1201.03 440.708 1203.83 439.161C1206.62 437.614 1209.06 435.592 1211.03 433.033C1212.99 430.475 1214.48 427.679 1215.49 424.525C1216.5 421.372 1217.04 418.159 1217.04 414.887C1217.04 411.377 1216.5 408.045 1215.37 404.892C1214.3 401.679 1212.75 398.883 1210.73 396.444C1208.77 394.004 1206.33 392.041 1203.53 390.613C1200.73 389.126 1197.58 388.412 1194.19 388.412C1190.8 388.412 1187.41 389.185 1184.61 390.732C1181.76 392.279 1179.38 394.302 1177.41 396.741C1175.45 399.18 1173.96 402.036 1172.95 405.189C1171.94 408.343 1171.4 411.615 1171.4 414.887V414.947Z" fill="#282828"/>
<path d="M1308.9 400.655V452H1297.41V378.5H1306.5L1348.16 431.712V378.5H1359.77V452L1350.31 451.94L1308.96 400.715L1308.9 400.655Z" fill="#282828"/>
<path d="M1432.83 451.417V378.535H1444.31V441.303H1483.46V451.477H1432.83V451.417Z" fill="#282828"/>
<path d="M1550.09 451.417V378.595H1561.57V451.417H1550.09Z" fill="#282828"/>
<path d="M1646.24 400.073V451.417H1634.75V378.535H1643.8L1685.5 431.129V378.654H1697.11V451.477H1687.59L1646.3 400.132L1646.24 400.073Z" fill="#282828"/>
<path d="M1820.14 441.244V451.417H1770.11V378.535H1819.19V388.709H1781.59V409.473H1814.13V419.052H1781.59V441.363H1820.08L1820.14 441.244Z" fill="#282828"/>
<path d="M1971.02 451.417V378.535H2001.6C2004.88 378.535 2007.91 379.249 2010.71 380.618C2013.5 381.986 2015.88 383.771 2017.85 386.032C2019.81 388.233 2021.36 390.791 2022.55 393.647C2023.68 396.503 2024.21 399.359 2024.21 402.334C2024.21 405.308 2023.68 408.402 2022.61 411.198C2021.53 414.054 2020.05 416.553 2018.14 418.814C2016.24 421.015 2013.92 422.8 2011.18 424.168C2008.45 425.477 2005.47 426.191 2002.2 426.191H1982.51V451.536H1971.02V451.417ZM1982.51 415.899H2001.48C2003.15 415.899 2004.64 415.542 2005.95 414.887C2007.26 414.233 2008.45 413.221 2009.4 412.031C2010.35 410.841 2011.12 409.354 2011.66 407.688C2012.19 406.022 2012.49 404.237 2012.49 402.274C2012.49 400.311 2012.19 398.347 2011.54 396.741C2010.88 395.135 2010.05 393.707 2008.98 392.457C2007.91 391.267 2006.66 390.315 2005.23 389.661C2003.8 389.007 2002.38 388.709 2000.89 388.709H1982.51V415.899Z" fill="#282828"/>
<path d="M2091.5 451.417V378.535H2123.21C2126.48 378.535 2129.52 379.249 2132.31 380.618C2135.11 381.986 2137.49 383.771 2139.45 386.032C2141.42 388.233 2143.02 390.791 2144.15 393.647C2145.28 396.503 2145.88 399.359 2145.88 402.334C2145.88 404.773 2145.52 407.153 2144.87 409.414C2144.21 411.674 2143.2 413.757 2142.01 415.661C2140.76 417.564 2139.28 419.23 2137.49 420.658C2135.71 422.086 2133.74 423.097 2131.66 423.811L2149.03 451.536H2136L2120 426.191H2103.16V451.536H2091.68L2091.5 451.417ZM2102.98 415.899H2123.09C2124.76 415.899 2126.25 415.542 2127.56 414.828C2128.86 414.114 2130.05 413.102 2131.01 411.853C2131.96 410.603 2132.73 409.116 2133.27 407.51C2133.8 405.844 2134.1 404.118 2134.1 402.274C2134.1 400.43 2133.8 398.704 2133.15 397.038C2132.49 395.373 2131.66 393.945 2130.59 392.695C2129.52 391.446 2128.27 390.494 2126.9 389.78C2125.47 389.066 2124.04 388.709 2122.56 388.709H2103.04V415.899H2102.98Z" fill="#282828"/>
<path d="M2266.89 441.244V451.417H2216.86V378.535H2265.94V388.709H2228.34V409.473H2260.88V419.052H2228.34V441.363H2266.83L2266.89 441.244Z" fill="#282828"/>
<path d="M2378.09 395.67C2377.38 394.897 2376.42 394.123 2375.12 393.231C2373.81 392.338 2372.32 391.565 2370.53 390.792C2368.81 390.018 2366.85 389.423 2364.7 388.947C2362.56 388.471 2360.3 388.233 2357.92 388.233C2353.4 388.233 2350.01 389.126 2347.63 390.911C2345.31 392.695 2344.12 395.194 2344.12 398.407C2344.12 400.192 2344.48 401.62 2345.25 402.75C2346.02 403.881 2347.15 404.832 2348.64 405.665C2350.13 406.498 2352.03 407.212 2354.29 407.867C2356.55 408.521 2359.17 409.235 2362.21 409.949C2365.78 410.901 2369.05 411.912 2372.02 412.924C2375 413.935 2377.56 415.244 2379.64 416.791C2381.72 418.338 2383.33 420.242 2384.52 422.503C2385.71 424.763 2386.24 427.56 2386.24 430.951C2386.24 434.759 2385.53 438.031 2384.1 440.708C2382.67 443.386 2380.71 445.527 2378.27 447.253C2375.83 448.919 2373.03 450.168 2369.82 450.941C2366.61 451.715 2363.16 452.131 2359.53 452.131C2354 452.131 2348.58 451.298 2343.4 449.633C2338.17 447.967 2333.53 445.527 2329.3 442.315L2334.66 432.438C2335.55 433.331 2336.8 434.342 2338.47 435.413C2340.13 436.484 2342.04 437.495 2344.3 438.447C2346.5 439.399 2349 440.173 2351.62 440.827C2354.29 441.482 2357.03 441.779 2359.94 441.779C2364.35 441.779 2367.74 440.946 2370.18 439.34C2372.62 437.733 2373.81 435.354 2373.81 432.319C2373.81 430.475 2373.33 428.928 2372.5 427.679C2371.61 426.429 2370.3 425.358 2368.57 424.466C2366.85 423.514 2364.76 422.741 2362.32 422.027C2359.89 421.313 2357.03 420.539 2353.88 419.706C2350.25 418.754 2347.09 417.743 2344.36 416.672C2341.62 415.601 2339.42 414.352 2337.63 412.805C2335.85 411.317 2334.48 409.533 2333.59 407.51C2332.64 405.487 2332.22 403.048 2332.22 400.192C2332.22 396.622 2332.87 393.469 2334.24 390.673C2335.55 387.876 2337.46 385.556 2339.78 383.712C2342.16 381.808 2344.95 380.439 2348.16 379.428C2351.38 378.476 2354.83 378 2358.52 378C2363.57 378 2368.15 378.773 2372.32 380.38C2376.48 381.986 2380.11 383.89 2383.27 386.21L2378.03 395.67H2378.09Z" fill="#282828"/>
<path d="M2504.58 441.244V451.417H2454.54V378.535H2503.63V388.709H2466.02V409.473H2498.57V419.052H2466.02V441.363H2504.52L2504.58 441.244Z" fill="#282828"/>
<path d="M2585.08 400.073V451.417H2573.59V378.535H2582.64L2624.34 431.129V378.654H2635.94V451.477H2626.42L2585.14 400.132L2585.08 400.073Z" fill="#282828"/>
<path d="M2704.54 414.471C2704.54 410.068 2705.32 405.725 2706.92 401.382C2708.47 397.039 2710.79 393.112 2713.76 389.661C2716.74 386.21 2720.37 383.414 2724.71 381.272C2729.05 379.13 2733.93 378.06 2739.41 378.06C2745.89 378.06 2751.48 379.547 2756.18 382.462C2760.88 385.378 2764.39 389.245 2766.72 393.945L2757.67 400.013C2756.72 397.812 2755.53 395.968 2754.1 394.48C2752.67 392.993 2751.13 391.803 2749.4 390.911C2747.74 390.018 2746.01 389.364 2744.23 389.007C2742.44 388.65 2740.72 388.412 2738.99 388.412C2735.3 388.412 2732.03 389.185 2729.17 390.732C2726.32 392.279 2723.94 394.302 2722.03 396.86C2720.13 399.418 2718.7 402.215 2717.75 405.368C2716.8 408.521 2716.32 411.675 2716.32 414.828C2716.32 418.398 2716.86 421.789 2718.05 425.002C2719.18 428.214 2720.78 431.07 2722.81 433.509C2724.83 435.949 2727.27 437.972 2730.13 439.399C2732.92 440.887 2736.02 441.601 2739.35 441.601C2741.07 441.601 2742.86 441.363 2744.76 440.946C2746.67 440.53 2748.45 439.756 2750.12 438.804C2751.78 437.853 2753.33 436.544 2754.82 435.056C2756.24 433.569 2757.43 431.724 2758.39 429.583L2767.96 435.056C2766.77 437.793 2765.17 440.232 2763.09 442.315C2761 444.397 2758.62 446.182 2756.07 447.61C2753.45 449.038 2750.71 450.168 2747.74 450.882C2744.76 451.655 2741.91 452.012 2738.99 452.012C2733.93 452.012 2729.29 450.942 2725.13 448.74C2720.96 446.539 2717.33 443.683 2714.3 440.173C2711.27 436.663 2708.89 432.617 2707.22 428.155C2705.55 423.693 2704.72 419.111 2704.72 414.471H2704.54Z" fill="#282828"/>
<path d="M2887.5 441.681V451.871H2835.5V378.871H2886.51V389.061H2847.43V409.859H2881.26V419.453H2847.43V441.8H2887.44L2887.5 441.681Z" fill="#282828"/>
<g filter="url(#filter1_d_54_15974)">
<path d="M480.302 531.84C447.434 518.438 412.608 511.628 377.623 511.628C360.64 511.628 343.593 513.231 326.722 516.468L326.069 516.602C326.069 516.602 340.06 467.167 330.876 434.705C313.527 373.42 161.124 270.912 161.124 270.912C161.124 270.912 65.4327 200.948 29.3017 155.151C3.64397 122.606 11.6978 10 11.6978 10C44.5658 23.4019 79.3916 30.2113 114.377 30.2113C131.36 30.2113 148.407 28.6091 165.278 25.3713L165.931 25.2378C165.931 25.2378 151.94 74.673 161.124 107.135C178.473 168.42 330.876 270.928 330.876 270.928C330.876 270.928 426.567 340.892 462.698 386.689C488.356 419.234 480.302 531.84 480.302 531.84Z" fill="#C71E1E"/>
<path d="M481.5 249.999V25.2212H249.275C249.275 25.2212 213.542 100.142 481.5 249.999Z" fill="#C71E1E"/>
<path d="M10.5009 291.824V516.602H242.726C242.726 516.602 278.459 441.681 10.5009 291.824Z" fill="#C71E1E"/>
</g>
</g>
<defs>
<filter id="filter0_d_54_15974" x="0.499878" y="0" width="2897" height="542" filterUnits="userSpaceOnUse" color-interpolation-filters="sRGB">
<feFlood flood-opacity="0" result="BackgroundImageFix"/>
<feColorMatrix in="SourceAlpha" type="matrix" values="0 0 0 0 0 0 0 0 0 0 0 0 0 0 0 0 0 0 127 0" result="hardAlpha"/>
<feOffset/>
<feGaussianBlur stdDeviation="5"/>
<feComposite in2="hardAlpha" operator="out"/>
<feColorMatrix type="matrix" values="0 0 0 0 0 0 0 0 0 0 0 0 0 0 0 0 0 0 0.25 0"/>
<feBlend mode="normal" in2="BackgroundImageFix" result="effect1_dropShadow_54_15974"/>
<feBlend mode="normal" in="SourceGraphic" in2="effect1_dropShadow_54_15974" result="shape"/>
</filter>
<filter id="filter1_d_54_15974" x="0.499878" y="0" width="491" height="542" filterUnits="userSpaceOnUse" color-interpolation-filters="sRGB">
<feFlood flood-opacity="0" result="BackgroundImageFix"/>
<feColorMatrix in="SourceAlpha" type="matrix" values="0 0 0 0 0 0 0 0 0 0 0 0 0 0 0 0 0 0 127 0" result="hardAlpha"/>
<feOffset/>
<feGaussianBlur stdDeviation="5"/>
<feComposite in2="hardAlpha" operator="out"/>
<feColorMatrix type="matrix" values="0 0 0 0 0 0 0 0 0 0 0 0 0 0 0 0 0 0 0.25 0"/>
<feBlend mode="normal" in2="BackgroundImageFix" result="effect1_dropShadow_54_15974"/>
<feBlend mode="normal" in="SourceGraphic" in2="effect1_dropShadow_54_15974" result="shape"/>
</filter>
</defs>
</svg>
