<svg width="2878" height="520" viewBox="0 0 2878 520" fill="none" xmlns="http://www.w3.org/2000/svg">
<g filter="url(#filter0_d_30_900)">
<path d="M691.059 143.58C690.224 142.76 687.956 141.236 684.197 139.009C680.438 136.782 675.783 134.379 670.174 131.976C664.565 129.515 658.419 127.405 651.736 125.53C645.053 123.654 638.429 122.775 631.746 122.775C622.974 122.775 616.291 124.299 611.577 127.346C606.863 130.394 604.536 134.907 604.536 140.826C604.536 144.518 605.55 147.565 607.639 150.027C609.727 152.488 612.711 154.657 616.53 156.591C620.408 158.525 625.182 160.342 630.91 161.983C636.639 163.624 643.262 165.44 650.721 167.492C661.343 170.363 670.89 173.469 679.423 176.869C687.956 180.268 695.236 184.429 701.263 189.469C707.29 194.45 711.944 200.545 715.167 207.695C718.389 214.845 720 223.46 720 233.423C720 245.672 717.673 256.045 712.959 264.543C708.245 273.041 702.099 279.898 694.401 285.114C686.703 290.33 677.812 294.139 667.728 296.484C657.643 298.828 647.26 299 636.639 299C628.524 299 620.229 299.414 611.816 298.183C603.402 296.952 595.108 295.194 586.992 292.791C578.877 290.447 570.941 287.634 563.243 284.352C555.545 281.07 548.445 277.319 542 272.983L564.496 229.145C565.511 230.2 568.315 232.134 572.91 234.947C577.505 237.819 583.114 240.691 589.797 243.504C596.48 246.375 603.939 248.895 612.293 251.181C620.587 253.408 629.061 254.58 637.594 254.58C655.674 254.58 664.744 249.189 664.744 238.346C664.744 234.244 663.372 230.903 660.687 228.207C658.001 225.57 654.242 223.167 649.468 220.999C644.695 218.831 639.085 216.838 632.581 215.021C626.077 213.204 619.036 211.153 611.338 208.867C601.134 205.82 592.303 202.479 584.784 198.904C577.266 195.329 571.06 191.168 566.048 186.48C561.035 181.791 557.336 176.341 554.949 170.246C552.562 164.092 551.368 156.942 551.368 148.796C551.368 137.368 553.576 127.229 557.932 118.438C562.288 109.647 568.255 102.263 575.714 96.2265C583.173 90.1901 591.885 85.6188 601.791 82.5713C611.696 79.5238 622.139 78 633.178 78C641.114 78 648.812 78.7033 656.271 80.1684C663.789 81.575 670.89 83.4504 677.633 85.6774C684.376 87.9044 690.821 90.4831 696.847 93.3548C702.874 96.2265 708.304 99.0982 713.078 101.911L690.94 143.639L691.059 143.58Z" fill="white"/>
<path d="M768.158 298.87V77.8444H819.205V254.01H926.297V298.87H768.158Z" fill="white"/>
<path d="M948.429 298.87L1033.39 77.8444H1074.8L1159.46 298.87H1105.32L1088.18 249.37H1019.41L1002.57 298.87H948.429ZM1053.91 132.045L1027.44 214.208H1079.44L1053.91 132.045Z" fill="white"/>
<path d="M1213.01 77.8444L1265.3 234.734L1316.65 77.8444H1370.49L1286.42 298.87H1243.76L1159.1 77.8444H1212.95H1213.01Z" fill="white"/>
<path d="M1409.4 298.87V77.8444H1460.45V298.87H1409.4Z" fill="white"/>
<path d="M1508.3 185.878C1508.3 172.732 1510.68 159.587 1515.43 146.559C1520.19 133.532 1527.15 121.86 1536.25 111.544C1545.41 101.287 1556.53 92.9161 1569.68 86.5497C1582.82 80.1832 1597.81 77 1614.64 77C1634.33 77 1651.46 81.4211 1665.97 90.2634C1680.48 99.1057 1691.31 110.601 1698.32 124.807L1659.13 151.924C1656.87 146.147 1653.95 141.372 1650.45 137.599C1646.94 133.767 1643.07 130.702 1638.91 128.344C1634.74 125.986 1630.46 124.336 1626 123.392C1621.54 122.449 1617.32 121.978 1613.39 121.978C1604.23 121.978 1596.38 123.923 1589.72 127.814C1583.06 131.704 1577.59 136.774 1573.25 142.904C1568.9 149.035 1565.63 156.05 1563.43 163.89C1561.23 171.73 1560.16 179.629 1560.16 187.646C1560.16 196.253 1561.47 204.623 1564.03 212.64C1566.64 220.657 1570.27 227.731 1574.91 233.921C1579.55 240.11 1585.2 245.003 1591.86 248.599C1598.52 252.195 1605.84 254.022 1613.93 254.022C1618.09 254.022 1622.37 253.433 1626.83 252.313C1631.29 251.193 1635.58 249.424 1639.74 247.066C1643.9 244.708 1647.65 241.643 1650.92 237.811C1654.25 233.98 1656.93 229.323 1659.01 223.782L1701 248.127C1697.67 256.144 1692.85 263.336 1686.55 269.703C1680.24 276.069 1672.99 281.433 1664.9 285.737C1656.81 290.04 1648.24 293.341 1639.2 295.581C1630.16 297.821 1621.3 299 1612.62 299C1597.27 299 1583.24 295.758 1570.45 289.274C1557.72 282.789 1546.72 274.242 1537.44 263.513C1528.22 252.843 1521.03 240.7 1515.79 227.142C1510.62 213.584 1508 199.79 1508 185.819L1508.3 185.878Z" fill="white"/>
<path d="M2012.03 298.87V166.552L1964.08 262.756H1936.71L1888.75 166.552V298.87H1837.71V77.8444H1893.1L1950.39 193.325L2007.98 77.8444H2063.08V298.87H2012.03Z" fill="white"/>
<path d="M2279.46 254.01V298.811H2124.12V77.8444H2276.67V122.644H2175.17V165.6H2262.33V207.009H2175.17V254.01H2279.46Z" fill="white"/>
<path d="M2329.85 298.87V77.8444H2412.37C2430.64 77.8444 2446.58 80.7596 2460.33 86.5902C2474.01 92.4207 2485.49 100.274 2494.72 110.269C2503.94 120.205 2510.9 131.926 2515.54 145.312C2520.24 158.699 2522.56 172.978 2522.56 188.089C2522.56 204.927 2519.94 220.098 2514.77 233.723C2509.59 247.287 2502.15 258.949 2492.51 268.587C2482.88 278.225 2471.22 285.722 2457.65 291.017C2444.03 296.312 2428.97 298.93 2412.37 298.93H2329.85V298.87ZM2470.56 188.03C2470.56 178.273 2469.25 169.408 2466.69 161.436C2464.08 153.463 2460.33 146.562 2455.33 140.731C2450.33 134.901 2444.2 130.438 2436.95 127.345C2429.69 124.251 2421.48 122.644 2412.37 122.644H2380.96V254.01H2412.37C2421.72 254.01 2429.99 252.345 2437.3 249.013C2444.56 245.681 2450.63 241.1 2455.51 235.15C2460.39 229.26 2464.14 222.299 2466.69 214.267C2469.31 206.295 2470.56 197.49 2470.56 187.97V188.03Z" fill="white"/>
<path d="M2571.7 298.87V77.8444H2622.75V298.87H2571.7Z" fill="white"/>
<path d="M2662 299L2744.93 78H2785.36L2868 299H2815.15L2798.42 249.506H2731.29L2714.85 299H2662ZM2764.97 132.194L2739.13 214.348H2789.89L2764.97 132.194Z" fill="white"/>
<path d="M554.613 367.536L574.841 404.066L595.189 367.536H607.742L580.613 414.359V441H569.011V414.121L542 367.476H554.613V367.536Z" fill="white"/>
<path d="M700.333 441C695.216 441 690.516 439.882 686.292 437.8C682.068 435.717 678.438 432.921 675.404 429.47C672.37 426.02 669.99 422.033 668.384 417.631C666.777 413.228 665.944 408.647 665.944 403.947C665.944 399.247 666.837 394.427 668.562 389.965C670.288 385.503 672.727 381.576 675.821 378.185C678.914 374.734 682.544 372.057 686.827 370.034C691.051 368.011 695.692 367.5 700.69 367.5C705.687 367.5 710.506 368.071 714.731 370.213C718.955 372.355 722.584 375.21 725.559 378.661C728.593 382.171 730.913 386.098 732.52 390.501C734.126 394.903 734.959 399.425 734.959 404.006C734.959 408.885 734.067 413.525 732.341 417.988C730.616 422.45 728.177 426.377 725.083 429.768C721.989 433.159 718.36 435.836 714.136 437.859C709.911 439.882 705.33 441 700.333 441ZM677.665 403.947C677.665 407.397 678.2 410.67 679.271 413.882C680.342 417.095 681.83 419.951 683.852 422.39C685.875 424.83 688.255 426.852 691.051 428.28C693.848 429.768 697.001 430.482 700.511 430.482C704.021 430.482 707.294 429.708 710.09 428.161C712.886 426.614 715.326 424.592 717.289 422.033C719.252 419.475 720.74 416.679 721.751 413.525C722.763 410.372 723.298 407.159 723.298 403.887C723.298 400.377 722.763 397.045 721.632 393.892C720.561 390.679 719.014 387.883 716.991 385.444C715.028 383.004 712.589 381.041 709.793 379.613C706.996 378.126 703.843 377.412 700.452 377.412C697.06 377.412 693.669 378.185 690.873 379.732C688.017 381.279 685.637 383.302 683.674 385.741C681.711 388.18 680.223 391.036 679.212 394.189C678.2 397.343 677.665 400.615 677.665 403.887V403.947Z" fill="white"/>
<path d="M834.414 430.506C838.221 430.506 841.434 429.732 843.992 428.245C846.491 426.758 848.574 424.794 850.12 422.355C851.667 419.915 852.738 417.179 853.393 414.025C854.047 410.932 854.345 407.719 854.345 404.447V367.5H865.946V404.447C865.946 409.444 865.351 414.144 864.221 418.547C863.031 422.95 861.187 426.817 858.688 430.149C856.129 433.481 852.857 436.098 848.871 438.002C844.885 439.906 840.066 440.858 834.473 440.858C828.881 440.858 823.764 439.846 819.718 437.824C815.732 435.801 812.46 433.124 810.021 429.732C807.581 426.341 805.796 422.474 804.666 418.071C803.595 413.668 803 409.147 803 404.387V367.44H814.483V404.387C814.483 407.719 814.78 410.991 815.435 414.085C816.089 417.179 817.16 419.975 818.707 422.414C820.254 424.854 822.277 426.817 824.894 428.245C827.453 429.732 830.606 430.446 834.414 430.446V430.506Z" fill="white"/>
<path d="M937.363 441V367.999H969.074C972.346 367.999 975.38 368.713 978.177 370.081C980.973 371.45 983.353 373.234 985.316 375.495C987.279 377.697 988.886 380.255 990.016 383.111C991.147 385.966 991.742 388.822 991.742 391.797C991.742 394.236 991.385 396.616 990.73 398.877C990.076 401.138 989.064 403.22 987.874 405.124C986.625 407.028 985.138 408.694 983.353 410.122C981.568 411.549 979.604 412.561 977.522 413.275L994.895 441H981.865L965.861 415.655H949.024V441H937.541H937.363ZM948.845 405.362H968.955C970.621 405.362 972.108 405.005 973.417 404.291C974.726 403.577 975.916 402.566 976.868 401.316C977.82 400.067 978.593 398.579 979.129 396.973C979.664 395.307 979.961 393.582 979.961 391.738C979.961 389.893 979.664 388.168 979.01 386.502C978.355 384.836 977.522 383.408 976.451 382.159C975.38 380.909 974.131 379.957 972.762 379.243C971.335 378.529 969.907 378.173 968.419 378.173H948.905V405.362H948.845Z" fill="white"/>
<path d="M1174.5 441C1169.38 441 1164.75 439.882 1160.53 437.8C1156.31 435.717 1152.68 432.921 1149.64 429.47C1146.61 426.02 1144.23 422.033 1142.62 417.631C1141.02 413.228 1140.18 408.647 1140.18 403.947C1140.18 399.247 1141.08 394.427 1142.8 389.965C1144.53 385.503 1146.97 381.576 1150.06 378.185C1153.15 374.734 1156.78 372.057 1161.07 370.034C1165.29 368.011 1170 367.5 1175 367.5C1180 367.5 1184.74 368.071 1188.97 370.213C1193.19 372.355 1196.82 375.21 1199.8 378.661C1202.83 382.171 1205.15 386.098 1206.76 390.501C1208.36 394.903 1209.2 399.425 1209.2 404.006C1209.2 408.885 1208.31 413.525 1206.58 417.988C1204.85 422.45 1202.42 426.377 1199.32 429.768C1196.23 433.159 1192.6 435.836 1188.37 437.859C1184.15 439.882 1179.5 441 1174.5 441ZM1151.9 403.947C1151.9 407.397 1152.44 410.67 1153.51 413.882C1154.58 417.095 1156.07 419.951 1158.09 422.39C1160.11 424.83 1162.49 426.852 1165.29 428.28C1168.09 429.768 1171.24 430.482 1174.75 430.482C1178.26 430.482 1181.53 429.708 1184.33 428.161C1187.12 426.614 1189.56 424.592 1191.53 422.033C1193.49 419.475 1194.98 416.679 1195.99 413.525C1197 410.372 1197.54 407.159 1197.54 403.887C1197.54 400.377 1197 397.045 1195.87 393.892C1194.8 390.679 1193.25 387.883 1191.23 385.444C1189.27 383.004 1186.83 381.041 1184.03 379.613C1181.23 378.126 1178.08 377.412 1174.69 377.412C1171.3 377.412 1167.91 378.185 1165.11 379.732C1162.26 381.279 1159.88 383.302 1157.91 385.741C1155.95 388.18 1154.46 391.036 1153.45 394.189C1152.44 397.343 1151.9 400.615 1151.9 403.887V403.947Z" fill="white"/>
<path d="M1289.4 389.655V441H1277.91V367.5H1287L1328.66 420.712V367.5H1340.27V441L1330.81 440.94L1289.46 389.715L1289.4 389.655Z" fill="white"/>
<path d="M1413.33 440.417V367.535H1424.81V430.303H1463.96V440.477H1413.33V440.417Z" fill="white"/>
<path d="M1530.59 440.417V367.595H1542.07V440.417H1530.59Z" fill="white"/>
<path d="M1626.74 389.073V440.417H1615.25V367.535H1624.3L1666 420.129V367.654H1677.61V440.477H1668.09L1626.8 389.132L1626.74 389.073Z" fill="white"/>
<path d="M1800.64 430.244V440.417H1750.61V367.535H1799.69V377.709H1762.09V398.473H1794.63V408.052H1762.09V430.363H1800.58L1800.64 430.244Z" fill="white"/>
<path d="M1951.52 440.417V367.535H1982.1C1985.38 367.535 1988.41 368.249 1991.21 369.618C1994 370.986 1996.38 372.771 1998.35 375.032C2000.31 377.233 2001.86 379.791 2003.05 382.647C2004.18 385.503 2004.71 388.359 2004.71 391.334C2004.71 394.308 2004.18 397.402 2003.11 400.198C2002.03 403.054 2000.55 405.553 1998.64 407.814C1996.74 410.015 1994.42 411.8 1991.68 413.168C1988.95 414.477 1985.97 415.191 1982.7 415.191H1963.01V440.536H1951.52V440.417ZM1963.01 404.899H1981.98C1983.65 404.899 1985.14 404.542 1986.45 403.887C1987.76 403.233 1988.95 402.221 1989.9 401.031C1990.85 399.841 1991.62 398.354 1992.16 396.688C1992.69 395.022 1992.99 393.237 1992.99 391.274C1992.99 389.311 1992.69 387.347 1992.04 385.741C1991.38 384.135 1990.55 382.707 1989.48 381.457C1988.41 380.267 1987.16 379.315 1985.73 378.661C1984.3 378.007 1982.88 377.709 1981.39 377.709H1963.01V404.899Z" fill="white"/>
<path d="M2072 440.417V367.535H2103.71C2106.98 367.535 2110.02 368.249 2112.81 369.618C2115.61 370.986 2117.99 372.771 2119.95 375.032C2121.92 377.233 2123.52 379.791 2124.65 382.647C2125.78 385.503 2126.38 388.359 2126.38 391.334C2126.38 393.773 2126.02 396.153 2125.37 398.414C2124.71 400.674 2123.7 402.757 2122.51 404.661C2121.26 406.564 2119.78 408.23 2117.99 409.658C2116.21 411.086 2114.24 412.097 2112.16 412.811L2129.53 440.536H2116.5L2100.5 415.191H2083.66V440.536H2072.18L2072 440.417ZM2083.48 404.899H2103.59C2105.26 404.899 2106.75 404.542 2108.06 403.828C2109.36 403.114 2110.55 402.102 2111.51 400.853C2112.46 399.603 2113.23 398.116 2113.77 396.51C2114.3 394.844 2114.6 393.118 2114.6 391.274C2114.6 389.43 2114.3 387.704 2113.65 386.038C2112.99 384.373 2112.16 382.945 2111.09 381.695C2110.02 380.446 2108.77 379.494 2107.4 378.78C2105.97 378.066 2104.55 377.709 2103.06 377.709H2083.54V404.899H2083.48Z" fill="white"/>
<path d="M2247.39 430.244V440.417H2197.36V367.535H2246.44V377.709H2208.84V398.473H2241.38V408.052H2208.84V430.363H2247.33L2247.39 430.244Z" fill="white"/>
<path d="M2358.59 384.67C2357.88 383.897 2356.92 383.123 2355.62 382.231C2354.31 381.338 2352.82 380.565 2351.03 379.792C2349.31 379.018 2347.35 378.423 2345.2 377.947C2343.06 377.471 2340.8 377.233 2338.42 377.233C2333.9 377.233 2330.51 378.126 2328.13 379.911C2325.81 381.695 2324.62 384.194 2324.62 387.407C2324.62 389.192 2324.98 390.62 2325.75 391.75C2326.52 392.881 2327.65 393.832 2329.14 394.665C2330.63 395.498 2332.53 396.212 2334.79 396.867C2337.05 397.521 2339.67 398.235 2342.71 398.949C2346.28 399.901 2349.55 400.912 2352.52 401.924C2355.5 402.935 2358.06 404.244 2360.14 405.791C2362.22 407.338 2363.83 409.242 2365.02 411.503C2366.21 413.763 2366.74 416.56 2366.74 419.951C2366.74 423.759 2366.03 427.031 2364.6 429.708C2363.17 432.386 2361.21 434.527 2358.77 436.253C2356.33 437.919 2353.53 439.168 2350.32 439.941C2347.11 440.715 2343.66 441.131 2340.03 441.131C2334.5 441.131 2329.08 440.298 2323.9 438.633C2318.67 436.967 2314.03 434.527 2309.8 431.315L2315.16 421.438C2316.05 422.331 2317.3 423.342 2318.97 424.413C2320.63 425.484 2322.54 426.495 2324.8 427.447C2327 428.399 2329.5 429.173 2332.12 429.827C2334.79 430.482 2337.53 430.779 2340.44 430.779C2344.85 430.779 2348.24 429.946 2350.68 428.34C2353.12 426.733 2354.31 424.354 2354.31 421.319C2354.31 419.475 2353.83 417.928 2353 416.679C2352.11 415.429 2350.8 414.358 2349.07 413.466C2347.35 412.514 2345.26 411.741 2342.82 411.027C2340.39 410.313 2337.53 409.539 2334.38 408.706C2330.75 407.754 2327.59 406.743 2324.86 405.672C2322.12 404.601 2319.92 403.352 2318.13 401.805C2316.35 400.317 2314.98 398.533 2314.09 396.51C2313.14 394.487 2312.72 392.048 2312.72 389.192C2312.72 385.622 2313.37 382.469 2314.74 379.673C2316.05 376.876 2317.96 374.556 2320.28 372.712C2322.66 370.808 2325.45 369.439 2328.66 368.428C2331.88 367.476 2335.33 367 2339.02 367C2344.07 367 2348.66 367.773 2352.82 369.38C2356.98 370.986 2360.61 372.89 2363.77 375.21L2358.53 384.67H2358.59Z" fill="white"/>
<path d="M2485.08 430.244V440.417H2435.04V367.535H2484.13V377.709H2446.52V398.473H2479.07V408.052H2446.52V430.363H2485.02L2485.08 430.244Z" fill="white"/>
<path d="M2565.58 389.073V440.417H2554.09V367.535H2563.14L2604.84 420.129V367.654H2616.44V440.477H2606.93L2565.64 389.132L2565.58 389.073Z" fill="white"/>
<path d="M2685.04 403.471C2685.04 399.068 2685.82 394.725 2687.42 390.382C2688.97 386.039 2691.29 382.112 2694.26 378.661C2697.24 375.21 2700.87 372.414 2705.21 370.272C2709.55 368.13 2714.43 367.06 2719.91 367.06C2726.39 367.06 2731.98 368.547 2736.68 371.462C2741.38 374.378 2744.9 378.245 2747.22 382.945L2738.17 389.013C2737.22 386.812 2736.03 384.968 2734.6 383.48C2733.17 381.993 2731.63 380.803 2729.9 379.911C2728.24 379.018 2726.51 378.364 2724.73 378.007C2722.94 377.65 2721.22 377.412 2719.49 377.412C2715.8 377.412 2712.53 378.185 2709.67 379.732C2706.82 381.279 2704.44 383.302 2702.53 385.86C2700.63 388.418 2699.2 391.215 2698.25 394.368C2697.3 397.521 2696.82 400.675 2696.82 403.828C2696.82 407.398 2697.36 410.789 2698.55 414.002C2699.68 417.214 2701.28 420.07 2703.31 422.509C2705.33 424.949 2707.77 426.972 2710.63 428.399C2713.42 429.887 2716.52 430.601 2719.85 430.601C2721.57 430.601 2723.36 430.363 2725.26 429.946C2727.17 429.53 2728.95 428.756 2730.62 427.804C2732.28 426.853 2733.83 425.544 2735.32 424.056C2736.74 422.569 2737.93 420.724 2738.89 418.583L2748.46 424.056C2747.27 426.793 2745.67 429.232 2743.59 431.315C2741.5 433.397 2739.12 435.182 2736.57 436.61C2733.95 438.038 2731.21 439.168 2728.24 439.882C2725.26 440.655 2722.41 441.012 2719.49 441.012C2714.43 441.012 2709.79 439.942 2705.63 437.74C2701.46 435.539 2697.83 432.683 2694.8 429.173C2691.77 425.663 2689.39 421.617 2687.72 417.155C2686.05 412.693 2685.22 408.111 2685.22 403.471H2685.04Z" fill="white"/>
<path d="M2868 430.681V440.871H2816V367.871H2867.01V378.061H2827.93V398.859H2861.76V408.453H2827.93V430.8H2867.94L2868 430.681Z" fill="white"/>
<g filter="url(#filter1_d_30_900)">
<path d="M462.034 505.466C458.912 471.146 456.066 436.827 452.502 402.535C450.319 381.45 441.312 363.228 427.442 347.584C396.11 312.188 357.235 286.087 320.737 257.124C282.387 226.687 242.932 197.723 205.107 166.634C167.945 136.112 150.042 96.2382 157.198 46.5868C158.248 39.2751 160.513 32.1617 162.558 23.4897C110.89 33.8904 60.3284 39.7852 12.3359 10C11.9215 13.2024 11.3964 15.1011 11.5069 16.9716C13.1094 46.7851 14.546 76.5703 16.563 106.355C18.4418 134.185 29.7148 157.707 50.5751 175.533C75.6627 196.958 101.386 217.561 126.998 238.334C174.935 277.188 223.204 315.617 270.893 354.783C302.695 380.912 315.487 414.835 309.105 456.664C307.585 466.612 304.352 473.073 299.821 476.049C299.572 477.608 299.241 479.138 298.881 480.64C321.482 480.101 344.083 477.098 366.657 477.494C400.862 478.089 433.078 486.818 461.454 510C461.813 507.478 462.144 506.486 462.034 505.522V505.466Z" fill="#C71E1E"/>
<path d="M11.4919 279V494.5H234.261C234.261 494.5 268.522 422.667 11.4919 279Z" fill="#C71E1E"/>
<path d="M462.055 243.5V27H237.31C237.31 27 202.747 99.1667 462.055 243.5Z" fill="#C71E1E"/>
</g>
</g>
<defs>
<filter id="filter0_d_30_900" x="-4" y="0" width="2882" height="520" filterUnits="userSpaceOnUse" color-interpolation-filters="sRGB">
<feFlood flood-opacity="0" result="BackgroundImageFix"/>
<feColorMatrix in="SourceAlpha" type="matrix" values="0 0 0 0 0 0 0 0 0 0 0 0 0 0 0 0 0 0 127 0" result="hardAlpha"/>
<feOffset/>
<feGaussianBlur stdDeviation="5"/>
<feComposite in2="hardAlpha" operator="out"/>
<feColorMatrix type="matrix" values="0 0 0 0 0 0 0 0 0 0 0 0 0 0 0 0 0 0 0.25 0"/>
<feBlend mode="normal" in2="BackgroundImageFix" result="effect1_dropShadow_30_900"/>
<feBlend mode="normal" in="SourceGraphic" in2="effect1_dropShadow_30_900" result="shape"/>
</filter>
<filter id="filter1_d_30_900" x="0" y="0" width="472.055" height="520" filterUnits="userSpaceOnUse" color-interpolation-filters="sRGB">
<feFlood flood-opacity="0" result="BackgroundImageFix"/>
<feColorMatrix in="SourceAlpha" type="matrix" values="0 0 0 0 0 0 0 0 0 0 0 0 0 0 0 0 0 0 127 0" result="hardAlpha"/>
<feOffset/>
<feGaussianBlur stdDeviation="5"/>
<feComposite in2="hardAlpha" operator="out"/>
<feColorMatrix type="matrix" values="0 0 0 0 0 0 0 0 0 0 0 0 0 0 0 0 0 0 0.25 0"/>
<feBlend mode="normal" in2="BackgroundImageFix" result="effect1_dropShadow_30_900"/>
<feBlend mode="normal" in="SourceGraphic" in2="effect1_dropShadow_30_900" result="shape"/>
</filter>
</defs>
</svg>
