<svg width="2715" height="1054" viewBox="0 0 2715 1054" fill="none" xmlns="http://www.w3.org/2000/svg">
<g filter="url(#filter0_d_30_978)">
<path d="M1319.65 239.352C1318.53 238.242 1315.53 236.076 1310.6 232.967C1305.68 229.858 1299.46 226.526 1292.07 223.139C1284.63 219.696 1276.54 216.698 1267.76 214.144C1258.98 211.59 1250.14 210.313 1241.36 210.313C1229.79 210.313 1220.95 212.423 1214.74 216.698C1208.58 220.974 1205.47 227.248 1205.47 235.521C1205.47 240.63 1206.87 244.905 1209.6 248.347C1212.33 251.79 1216.24 254.844 1221.33 257.564C1226.41 260.285 1232.73 262.784 1240.29 265.06C1247.84 267.337 1256.57 269.891 1266.47 272.778C1280.51 276.776 1293.14 281.107 1304.39 285.827C1315.64 290.546 1325.28 296.376 1333.26 303.372C1341.24 310.368 1347.34 318.864 1351.63 328.803C1355.91 338.797 1358 350.735 1358 364.727C1358 381.829 1354.89 396.321 1348.74 408.148C1342.58 419.974 1334.38 429.525 1324.21 436.798C1314.03 444.072 1302.3 449.347 1288.97 452.623C1275.63 455.899 1261.98 457.565 1247.94 457.565C1237.23 457.565 1226.31 456.732 1215.17 455.01C1204.03 453.289 1193.1 450.791 1182.39 447.515C1171.68 444.239 1161.24 440.297 1151.06 435.743C1140.89 431.19 1131.52 425.915 1123 419.919L1152.67 358.786C1154.06 360.23 1157.76 362.95 1163.81 366.893C1169.86 370.89 1177.25 374.888 1186.09 378.886C1194.87 382.884 1204.78 386.437 1215.76 389.547C1226.74 392.712 1237.88 394.266 1249.18 394.266C1273.12 394.266 1285.06 386.715 1285.06 371.612C1285.06 365.893 1283.29 361.229 1279.7 357.509C1276.11 353.789 1271.19 350.457 1264.87 347.459C1258.55 344.461 1251.1 341.684 1242.59 339.13C1234.07 336.576 1224.7 333.745 1214.53 330.58C1201.03 326.304 1189.36 321.696 1179.5 316.698C1169.59 311.701 1161.35 305.927 1154.76 299.375C1148.17 292.823 1143.3 285.271 1140.14 276.721C1136.98 268.17 1135.37 258.175 1135.37 246.793C1135.37 230.857 1138.26 216.698 1144.05 204.483C1149.83 192.212 1157.65 181.884 1167.56 173.5C1177.46 165.116 1188.93 158.73 1201.99 154.455C1215.06 150.179 1228.93 148.565 1243.5 148.565C1253.94 148.565 1264.06 149.069 1273.97 151.068C1283.88 153.067 1293.31 155.621 1302.2 158.786C1311.14 161.951 1319.6 165.504 1327.58 169.447C1335.56 173.444 1342.68 177.442 1349 181.44L1319.71 239.574L1319.65 239.352Z" fill="white"/>
<path d="M1418.07 457.438V148H1489.66V394.668H1639.8V457.438H1418.07Z" fill="white"/>
<path d="M1670.75 457.438L1789.89 148H1847.93L1966.62 457.438H1890.67L1866.69 388.158H1770.23L1746.65 457.438H1670.7H1670.75ZM1818.74 223.789L1781.67 338.859H1854.56L1818.8 223.789H1818.74Z" fill="white"/>
<path d="M2041.72 148L2115.06 367.669L2187.1 148H2262.6L2144.76 457.438H2084.97L1966.28 148H2041.78H2041.72Z" fill="white"/>
<path d="M2317.13 457.438V148H2388.71V457.438H2317.13Z" fill="white"/>
<path d="M2456 300.363C2456 282.11 2459.06 263.858 2465.19 245.717C2471.32 227.577 2480.25 211.383 2491.98 197.082C2503.71 182.781 2518.04 171.262 2534.96 162.359C2551.89 153.511 2570.9 148.565 2592.5 148.565C2617.83 148.565 2640.04 155.18 2658.73 167.478C2677.37 179.776 2691.23 195.747 2700.31 215.446L2649.96 253.174C2647 245.161 2643.31 238.539 2638.74 233.253C2634.23 227.966 2629.29 223.681 2623.95 220.398C2618.6 217.115 2613.1 214.834 2607.33 213.554C2601.62 212.274 2596.22 211.606 2591.14 211.606C2579.4 211.606 2569.28 214.333 2560.77 219.731C2552.25 225.184 2545.19 232.14 2539.58 240.709C2533.98 249.279 2529.77 259.017 2527.02 269.868C2524.22 280.719 2522.82 291.737 2522.82 302.867C2522.82 314.886 2524.48 326.461 2527.8 337.59C2531.12 348.72 2535.79 358.569 2541.82 367.139C2547.84 375.708 2555.06 382.497 2563.62 387.505C2572.14 392.513 2581.64 395.018 2592.02 395.018C2597.37 395.018 2602.87 394.238 2608.63 392.68C2614.34 391.122 2619.9 388.674 2625.24 385.391C2630.59 382.108 2635.37 377.823 2639.63 372.536C2643.88 367.25 2647.36 360.739 2650.01 353.06L2704 386.893C2699.74 398.023 2693.51 408.039 2685.42 416.887C2677.26 425.735 2668.02 433.191 2657.64 439.146C2647.26 445.1 2636.25 449.719 2624.67 452.835C2613.1 455.951 2601.68 457.565 2590.51 457.565C2570.79 457.565 2552.72 453.057 2536.37 444.043C2520.01 435.028 2505.84 423.119 2494 408.262C2482.17 393.404 2472.87 376.543 2466.23 357.679C2459.58 338.814 2456.26 319.672 2456.26 300.251L2456 300.363Z" fill="white"/>
<path d="M1367.46 905.438V720.183L1300.24 854.837H1261.81L1194.59 720.183V905.438H1123V596H1200.71L1281.02 757.709L1361.79 596H1439.05V905.438H1367.46Z" fill="white"/>
<path d="M1772.89 842.725V905.495H1555.12V596.057H1768.98V658.828H1626.71V718.994H1748.91V776.954H1626.71V842.781H1772.95L1772.89 842.725Z" fill="white"/>
<path d="M1874.17 905.438V596H1989.86C2015.48 596 2037.87 600.075 2057.08 608.226C2076.29 616.377 2092.34 627.414 2105.31 641.338C2118.29 655.261 2127.99 671.619 2134.56 690.354C2141.14 709.089 2144.37 729.069 2144.37 750.295C2144.37 773.841 2140.74 795.123 2133.43 814.141C2126.17 833.159 2115.74 849.46 2102.25 862.931C2088.71 876.459 2072.44 886.93 2053.4 894.288C2034.35 901.703 2013.15 905.382 1989.92 905.382H1874.23L1874.17 905.438ZM2071.42 750.295C2071.42 736.654 2069.61 724.201 2065.98 713.051C2062.35 701.844 2057.02 692.222 2050.05 684.071C2043.08 675.921 2034.46 669.695 2024.32 665.336C2014.12 660.978 2002.61 658.771 1989.86 658.771H1945.76V842.668H1989.86C2002.95 842.668 2014.57 840.347 2024.77 835.706C2034.98 831.065 2043.48 824.612 2050.28 816.291C2057.08 807.971 2062.35 798.292 2065.98 787.085C2069.61 775.878 2071.42 763.652 2071.42 750.238V750.295Z" fill="white"/>
<path d="M2243.84 905.438V596H2315.43V905.438H2243.84Z" fill="white"/>
<path d="M2401.27 905.735L2523.25 596.165H2582.68L2704.21 905.735H2626.44L2601.89 836.426H2503.12L2478.97 905.735H2401.21H2401.27ZM2552.79 672.043L2514.84 787.162H2589.47L2552.85 672.043H2552.79Z" fill="white"/>
<g filter="url(#filter1_d_30_978)">
<path d="M949.07 1034.62C942.584 963.65 936.673 892.677 929.268 821.763C924.734 778.16 906.021 740.475 877.207 708.124C812.117 634.924 731.358 580.948 655.535 521.052C575.866 458.108 493.9 398.212 415.322 333.92C338.121 270.8 300.927 188.341 315.793 85.6614C317.975 70.5409 322.681 55.8304 326.928 37.8967C219.593 59.4054 114.554 71.5958 14.8526 10C13.9917 16.6226 12.9008 20.5492 13.1304 24.4172C16.4595 86.0716 19.444 147.667 23.6341 209.263C27.5372 266.815 50.9561 315.459 94.292 352.322C146.41 396.629 199.847 439.236 253.056 482.195C352.642 562.545 452.918 642.016 551.988 723.01C618.053 777.046 644.63 847.198 631.37 933.702C628.214 954.273 621.497 967.635 612.084 973.789C611.567 977.013 610.878 980.177 610.132 983.283C657.084 982.17 704.036 975.958 750.931 976.778C821.99 978.009 888.917 996.06 947.865 1044C948.611 1038.78 949.3 1036.73 949.07 1034.74V1034.62Z" fill="#C71E1E"/>
<path d="M13.0994 566.292V1011.95H475.888C475.888 1011.95 547.062 863.395 13.0994 566.292Z" fill="#C71E1E"/>
<path d="M949.115 492.878V45.156H482.222C482.222 45.156 410.419 194.397 949.115 492.878Z" fill="#C71E1E"/>
</g>
</g>
<defs>
<filter id="filter0_d_30_978" x="0" y="0" width="2715" height="1054" filterUnits="userSpaceOnUse" color-interpolation-filters="sRGB">
<feFlood flood-opacity="0" result="BackgroundImageFix"/>
<feColorMatrix in="SourceAlpha" type="matrix" values="0 0 0 0 0 0 0 0 0 0 0 0 0 0 0 0 0 0 127 0" result="hardAlpha"/>
<feOffset/>
<feGaussianBlur stdDeviation="5"/>
<feComposite in2="hardAlpha" operator="out"/>
<feColorMatrix type="matrix" values="0 0 0 0 0 0 0 0 0 0 0 0 0 0 0 0 0 0 0.25 0"/>
<feBlend mode="normal" in2="BackgroundImageFix" result="effect1_dropShadow_30_978"/>
<feBlend mode="normal" in="SourceGraphic" in2="effect1_dropShadow_30_978" result="shape"/>
</filter>
<filter id="filter1_d_30_978" x="0" y="0" width="959.115" height="1054" filterUnits="userSpaceOnUse" color-interpolation-filters="sRGB">
<feFlood flood-opacity="0" result="BackgroundImageFix"/>
<feColorMatrix in="SourceAlpha" type="matrix" values="0 0 0 0 0 0 0 0 0 0 0 0 0 0 0 0 0 0 127 0" result="hardAlpha"/>
<feOffset/>
<feGaussianBlur stdDeviation="5"/>
<feComposite in2="hardAlpha" operator="out"/>
<feColorMatrix type="matrix" values="0 0 0 0 0 0 0 0 0 0 0 0 0 0 0 0 0 0 0.25 0"/>
<feBlend mode="normal" in2="BackgroundImageFix" result="effect1_dropShadow_30_978"/>
<feBlend mode="normal" in="SourceGraphic" in2="effect1_dropShadow_30_978" result="shape"/>
</filter>
</defs>
</svg>
