<svg width="2759" height="1104" viewBox="0 0 2759 1104" fill="none" xmlns="http://www.w3.org/2000/svg">
<g filter="url(#filter0_d_30_978)">
<path d="M1364.15 264.352C1363.03 263.242 1360.03 261.076 1355.1 257.967C1350.18 254.858 1343.96 251.526 1336.57 248.139C1329.13 244.696 1321.04 241.698 1312.26 239.144C1303.48 236.59 1294.64 235.313 1285.86 235.313C1274.29 235.313 1265.45 237.423 1259.24 241.698C1253.08 245.974 1249.97 252.248 1249.97 260.521C1249.97 265.63 1251.37 269.905 1254.1 273.347C1256.83 276.79 1260.74 279.844 1265.83 282.564C1270.91 285.285 1277.23 287.784 1284.79 290.06C1292.34 292.337 1301.07 294.891 1310.97 297.778C1325.01 301.776 1337.64 306.107 1348.89 310.827C1360.14 315.546 1369.78 321.376 1377.76 328.372C1385.74 335.368 1391.84 343.864 1396.13 353.803C1400.41 363.797 1402.5 375.735 1402.5 389.727C1402.5 406.829 1399.39 421.321 1393.24 433.148C1387.08 444.974 1378.88 454.525 1368.71 461.798C1358.53 469.072 1346.8 474.347 1333.47 477.623C1320.13 480.899 1306.48 482.565 1292.44 482.565C1281.73 482.565 1270.81 481.732 1259.67 480.01C1248.53 478.289 1237.6 475.791 1226.89 472.515C1216.18 469.239 1205.74 465.297 1195.56 460.743C1185.39 456.19 1176.02 450.915 1167.5 444.919L1197.17 383.786C1198.56 385.23 1202.26 387.95 1208.31 391.893C1214.36 395.89 1221.75 399.888 1230.59 403.886C1239.37 407.884 1249.28 411.437 1260.26 414.547C1271.24 417.712 1282.38 419.266 1293.68 419.266C1317.62 419.266 1329.56 411.715 1329.56 396.612C1329.56 390.893 1327.79 386.229 1324.2 382.509C1320.61 378.789 1315.69 375.457 1309.37 372.459C1303.05 369.461 1295.6 366.684 1287.09 364.13C1278.57 361.576 1269.2 358.745 1259.03 355.58C1245.53 351.304 1233.86 346.696 1224 341.698C1214.09 336.701 1205.85 330.927 1199.26 324.375C1192.67 317.823 1187.8 310.271 1184.64 301.721C1181.48 293.17 1179.87 283.175 1179.87 271.793C1179.87 255.857 1182.76 241.698 1188.55 229.483C1194.33 217.212 1202.15 206.884 1212.06 198.5C1221.96 190.116 1233.43 183.73 1246.49 179.455C1259.56 175.179 1273.43 173.565 1288 173.565C1298.44 173.565 1308.56 174.069 1318.47 176.068C1328.38 178.067 1337.81 180.621 1346.7 183.786C1355.64 186.951 1364.1 190.504 1372.08 194.447C1380.06 198.444 1387.18 202.442 1393.5 206.44L1364.21 264.574L1364.15 264.352Z" fill="white"/>
<path d="M1462.57 482.438V173H1534.16V419.668H1684.3V482.438H1462.57Z" fill="white"/>
<path d="M1715.25 482.438L1834.39 173H1892.43L2011.12 482.438H1935.17L1911.19 413.158H1814.73L1791.15 482.438H1715.2H1715.25ZM1863.24 248.789L1826.17 363.859H1899.06L1863.3 248.789H1863.24Z" fill="white"/>
<path d="M2086.22 173L2159.56 392.669L2231.6 173H2307.1L2189.26 482.438H2129.47L2010.78 173H2086.28H2086.22Z" fill="white"/>
<path d="M2361.63 482.438V173H2433.21V482.438H2361.63Z" fill="white"/>
<path d="M2500.5 325.363C2500.5 307.11 2503.56 288.858 2509.69 270.717C2515.82 252.577 2524.75 236.383 2536.48 222.082C2548.21 207.781 2562.54 196.262 2579.46 187.359C2596.39 178.511 2615.4 173.565 2637 173.565C2662.33 173.565 2684.54 180.18 2703.23 192.478C2721.87 204.776 2735.73 220.747 2744.81 240.446L2694.46 278.174C2691.5 270.161 2687.81 263.539 2683.24 258.253C2678.73 252.966 2673.79 248.681 2668.45 245.398C2663.1 242.115 2657.6 239.834 2651.83 238.554C2646.12 237.274 2640.72 236.606 2635.64 236.606C2623.9 236.606 2613.78 239.333 2605.27 244.731C2596.75 250.184 2589.69 257.14 2584.08 265.709C2578.48 274.279 2574.27 284.017 2571.52 294.868C2568.72 305.719 2567.32 316.737 2567.32 327.867C2567.32 339.886 2568.98 351.461 2572.3 362.59C2575.62 373.72 2580.29 383.569 2586.32 392.139C2592.34 400.708 2599.56 407.497 2608.12 412.505C2616.64 417.513 2626.14 420.018 2636.52 420.018C2641.87 420.018 2647.37 419.238 2653.13 417.68C2658.84 416.122 2664.4 413.674 2669.74 410.391C2675.09 407.108 2679.87 402.823 2684.13 397.536C2688.38 392.25 2691.86 385.739 2694.51 378.06L2748.5 411.893C2744.24 423.023 2738.01 433.039 2729.92 441.887C2721.76 450.735 2712.52 458.191 2702.14 464.146C2691.76 470.1 2680.75 474.719 2669.17 477.835C2657.6 480.951 2646.18 482.565 2635.01 482.565C2615.29 482.565 2597.22 478.057 2580.87 469.043C2564.51 460.028 2550.34 448.119 2538.5 433.262C2526.67 418.404 2517.37 401.543 2510.73 382.679C2504.08 363.814 2500.76 344.672 2500.76 325.251L2500.5 325.363Z" fill="white"/>
<path d="M1411.96 930.438V745.183L1344.74 879.837H1306.31L1239.09 745.183V930.438H1167.5V621H1245.21L1325.52 782.709L1406.29 621H1483.55V930.438H1411.96Z" fill="white"/>
<path d="M1817.39 867.725V930.495H1599.62V621.057H1813.48V683.828H1671.21V743.994H1793.41V801.954H1671.21V867.781H1817.45L1817.39 867.725Z" fill="white"/>
<path d="M1918.67 930.438V621H2034.36C2059.98 621 2082.37 625.075 2101.58 633.226C2120.79 641.377 2136.84 652.414 2149.81 666.338C2162.79 680.261 2172.49 696.619 2179.06 715.354C2185.64 734.089 2188.87 754.069 2188.87 775.295C2188.87 798.841 2185.24 820.123 2177.93 839.141C2170.67 858.159 2160.24 874.46 2146.75 887.931C2133.21 901.459 2116.94 911.93 2097.9 919.288C2078.85 926.703 2057.65 930.382 2034.42 930.382H1918.73L1918.67 930.438ZM2115.92 775.295C2115.92 761.654 2114.11 749.201 2110.48 738.051C2106.85 726.844 2101.52 717.222 2094.55 709.071C2087.58 700.921 2078.96 694.695 2068.82 690.336C2058.62 685.978 2047.11 683.771 2034.36 683.771H1990.26V867.668H2034.36C2047.45 867.668 2059.07 865.347 2069.27 860.706C2079.48 856.065 2087.98 849.612 2094.78 841.291C2101.58 832.971 2106.85 823.292 2110.48 812.085C2114.11 800.878 2115.92 788.652 2115.92 775.238V775.295Z" fill="white"/>
<path d="M2288.34 930.438V621H2359.93V930.438H2288.34Z" fill="white"/>
<path d="M2445.77 930.735L2567.75 621.165H2627.18L2748.71 930.735H2670.94L2646.39 861.426H2547.62L2523.47 930.735H2445.71H2445.77ZM2597.29 697.043L2559.34 812.162H2633.97L2597.35 697.043H2597.29Z" fill="white"/>
<g filter="url(#filter1_d_30_978)">
<path d="M991 1093.67C922.403 1065.84 849.72 1051.7 776.704 1051.7C741.26 1051.7 705.682 1055.02 670.47 1061.75L669.108 1062.02C669.108 1062.02 698.307 959.366 679.14 891.955C642.931 764.689 324.86 551.816 324.86 551.816C324.86 551.816 125.147 406.528 49.7404 311.425C-3.80862 243.841 13.0002 10 13.0002 10C81.5973 37.8308 154.28 51.9714 227.296 51.9714C262.74 51.9714 298.318 48.6442 333.53 41.9205L334.892 41.6432C334.892 41.6432 305.693 144.302 324.86 211.712C361.069 338.978 679.14 551.851 679.14 551.851C679.14 551.851 878.853 697.139 954.26 792.242C1007.81 859.826 991 1093.67 991 1093.67Z" fill="#C71E1E"/>
<path d="M993.5 508.39V41.609H508.835C508.835 41.609 434.259 197.191 993.5 508.39Z" fill="#C71E1E"/>
<path d="M10.502 595.243V1062.02H495.167C495.167 1062.02 569.743 906.442 10.502 595.243Z" fill="#C71E1E"/>
</g>
</g>
<defs>
<filter id="filter0_d_30_978" x="0.5" y="0" width="2759" height="1104" filterUnits="userSpaceOnUse" color-interpolation-filters="sRGB">
<feFlood flood-opacity="0" result="BackgroundImageFix"/>
<feColorMatrix in="SourceAlpha" type="matrix" values="0 0 0 0 0 0 0 0 0 0 0 0 0 0 0 0 0 0 127 0" result="hardAlpha"/>
<feOffset/>
<feGaussianBlur stdDeviation="5"/>
<feComposite in2="hardAlpha" operator="out"/>
<feColorMatrix type="matrix" values="0 0 0 0 0 0 0 0 0 0 0 0 0 0 0 0 0 0 0.25 0"/>
<feBlend mode="normal" in2="BackgroundImageFix" result="effect1_dropShadow_30_978"/>
<feBlend mode="normal" in="SourceGraphic" in2="effect1_dropShadow_30_978" result="shape"/>
</filter>
<filter id="filter1_d_30_978" x="0.5" y="0" width="1003" height="1104" filterUnits="userSpaceOnUse" color-interpolation-filters="sRGB">
<feFlood flood-opacity="0" result="BackgroundImageFix"/>
<feColorMatrix in="SourceAlpha" type="matrix" values="0 0 0 0 0 0 0 0 0 0 0 0 0 0 0 0 0 0 127 0" result="hardAlpha"/>
<feOffset/>
<feGaussianBlur stdDeviation="5"/>
<feComposite in2="hardAlpha" operator="out"/>
<feColorMatrix type="matrix" values="0 0 0 0 0 0 0 0 0 0 0 0 0 0 0 0 0 0 0.25 0"/>
<feBlend mode="normal" in2="BackgroundImageFix" result="effect1_dropShadow_30_978"/>
<feBlend mode="normal" in="SourceGraphic" in2="effect1_dropShadow_30_978" result="shape"/>
</filter>
</defs>
</svg>
