<?xml version="1.0" encoding="UTF-8"?><svg xmlns="http://www.w3.org/2000/svg" viewBox="0 0 487.5 140.62"><defs><style>.d{fill:#2670b8;}</style></defs><g id="a"/><g id="b"><g id="c"><g><path class="d" d="M0,28.12v-9.38H93.75v9.38H0Zm0,18.75v-9.38H28.12v9.38H0Zm0,18.75v-9.38H28.12v9.38H0Zm0,18.75v-9.38H28.12v9.38H0Zm0,18.75v-9.38H28.12v9.38H0Zm0,18.75v-9.38H93.75v9.38H0ZM9.38,9.38V0H93.75V9.38H9.38Zm0,131.25v-9.38H93.75v9.38H9.38Z"/><path class="d" d="M121.88,28.12v-9.38h93.75v9.38H121.88Zm0,18.75v-9.38h28.12v9.38h-28.12Zm0,18.75v-9.38h28.12v9.38h-28.12Zm0,18.75v-9.38h28.12v9.38h-28.12Zm0,18.75v-9.38h28.12v9.38h-28.12Zm0,18.75v-9.38h93.75v9.38H121.88Zm9.37-112.5V0h75V9.38h-75Zm0,131.25v-9.38h75v9.38h-75Zm56.25-93.75v-9.38h28.12v9.38h-28.12Zm0,18.75v-9.38h28.12v9.38h-28.12Zm0,18.75v-9.38h28.12v9.38h-28.12Zm0,18.75v-9.38h28.12v9.38h-28.12Z"/><path class="d" d="M243.75,9.38V0h103.12V9.38h-103.12Zm0,18.75v-9.38h112.5v9.38h-112.5Zm0,93.75v-9.38h46.87v9.38h-46.87Zm0,18.75v-9.38h46.87v9.38h-46.87Zm9.37-93.75v-9.38h28.12v9.38h-28.12Zm0,18.75v-9.38h93.75v9.38h-93.75Zm0,18.75v-9.38h93.75v9.38h-93.75Zm0,18.75v-9.38h28.12v9.38h-28.12Zm65.62,18.75v-9.38h46.88v9.38h-46.88Zm0,18.75v-9.38h46.88v9.38h-46.88Zm9.38-93.75v-9.38h28.12v9.38h-28.12Zm0,56.25v-9.38h28.12v9.38h-28.12Z"/><path class="d" d="M393.75,9.38V0h84.38V9.38h-84.38Zm0,18.75v-9.38h93.75v9.38h-93.75Zm0,93.75v-9.38h46.88v9.38h-46.88Zm0,18.75v-9.38h46.88v9.38h-46.88Zm9.38-93.75v-9.38h28.12v9.38h-28.12Zm0,18.75v-9.38h84.38v9.38h-84.38Zm0,18.75v-9.38h75v9.38h-75Zm0,18.75v-9.38h28.12v9.38h-28.12Zm56.25-56.25v-9.38h28.12v9.38h-28.12Z"/></g></g></g></svg>