<?xml version="1.0" encoding="UTF-8"?><svg xmlns="http://www.w3.org/2000/svg" viewBox="0 0 572.21 556.95"><g id="a"/><g id="b"><g id="c"><path d="M346.02,412.62c5.06-1.09,10.2-2.11,15.29-3.31,23.91-5.65,46.56-14.32,66.86-28.43,27.91-19.39,46.15-45.36,53.06-78.9,2.58-12.55,3.27-25.24,2.62-38.05-.83-16.41-3.6-32.41-9.3-47.86-5.83-15.8-14.44-29.89-25.82-42.29-.49-.54-.9-1.78-.61-2.3,3.68-6.74,5.38-14.08,6.43-21.56,1.93-13.79,1.43-27.47-2.51-40.92-2.03-6.94-5.04-13.4-9.2-19.34-.84-1.2-1.75-1.66-3.25-1.61-24.89,.69-47.18,8.8-66.99,23.72-5.19,3.91-9.85,8.53-14.65,12.94-.97,.9-1.67,1.02-2.83,.61-11.86-4.18-24.16-6.35-36.61-7.85-17.02-2.06-34.08-2.36-51.16-1.23-17.21,1.14-34.19,3.72-50.5,9.65-1.35,.49-2.05,.2-2.98-.77-17.5-18.33-38.59-30.31-63.52-35.14-6.01-1.17-12.21-1.35-18.34-1.84-.8-.06-1.97,.55-2.47,1.22-6.17,8.27-9.68,17.7-11.44,27.75-2.65,15.18-1.93,30.23,2.98,44.91,1.31,3.92,3.32,7.6,5.13,11.67-2,2.28-4.38,4.86-6.62,7.55-15.96,19.15-25.49,41.17-29.38,65.72-2.01,12.65-2.7,25.37-1.66,38.14,2.79,34.18,16.59,62.97,42.49,85.69,19.77,17.33,42.93,28.26,68,35.35,8.78,2.48,17.78,4.19,26.68,6.26,.27,.06,.54,.15,.73,.2-1.26,3.7-2.72,7.27-3.69,10.98-2.17,8.28-2.45,16.79-2.59,25.3-.03,1.74-.5,2.56-2.19,3.13-8.43,2.86-17.12,3.95-25.95,3.81-12.23-.2-23.98-2.58-34.94-8.26-10.07-5.21-18.01-12.68-24.04-22.28-9.15-14.56-21.83-24.26-38.94-27.68-4.9-.98-9.77-.97-14.53,.66-4.16,1.42-5.09,4.09-2.33,7.53,1.81,2.26,3.94,4.45,6.34,6.03,10.94,7.19,18.35,17.34,24.49,28.59,2.03,3.72,3.94,7.53,5.53,11.46,5.72,14.21,15.65,24.82,28.3,32.98,15.71,10.14,33.18,14.14,51.68,13.32,8.45-.37,16.85-1.88,25.27-2.86,.35-.04,.7-.08,1.24-.14,0,1.05,0,1.99,0,2.94,0,12.03,.05,24.06-.03,36.08-.07,9.76-7.73,19.84-16.76,22.19-3.11,.81-6.21,.8-9.3-.26-32.9-11.27-62.93-27.79-89.67-50.01-47.84-39.75-79.84-89.69-95.48-149.98C2,329.7-.84,302.81,.21,275.57c2.27-58.64,20.58-111.84,55.43-159.09,32.31-43.81,73.89-75.86,124.43-96.21,19.28-7.76,39.19-13.26,59.69-16.57C262.29,.07,284.94-.91,307.71,.85c57.66,4.47,109.47,24.31,154.86,60.08,51.84,40.84,85.75,93.52,101.62,157.66,6.31,25.48,8.86,51.4,7.78,77.59-2.53,61.1-22.36,116.04-59.85,164.4-30.4,39.2-68.64,68.4-114.21,87.96-5.98,2.57-12.18,4.59-18.21,7.05-7.98,3.25-15.86,.25-20.86-5.44-4.41-5.02-6.76-10.82-6.75-17.62,.05-28.82,.07-57.65-.05-86.47-.03-8.2-.17-16.45-2.55-24.4-.91-3.05-2.28-5.95-3.48-9.03Z"/></g></g></svg>