<?xml version="1.0" encoding="UTF-8"?><svg xmlns="http://www.w3.org/2000/svg" viewBox="0 0 569.88 569.88"><defs><style>.d{fill:#fcfeff;}.e{fill:#fdfeff;}.f{fill:#2baadd;}</style></defs><g id="a"/><g id="b"><g id="c"><g><path class="f" d="M259.95,0c16.66,0,33.33,0,49.99,0,8.28,1.41,16.55,2.89,24.85,4.22,116.89,18.74,212.14,113.99,230.88,230.88,1.33,8.3,2.81,16.57,4.22,24.85v49.99c-.68,2.79-1.64,5.53-1.99,8.36-9.04,72.95-40.55,134.4-96.54,181.98-67.9,57.7-146.96,78.66-234.65,64.11-78.17-12.97-140.46-52.74-185.44-117.94C7.39,382.86-7.3,312.06,5.33,236.02,25.25,116.04,116.95,24.76,237.32,4.06c7.55-1.3,15.09-2.71,22.63-4.06Zm-112.44,194.88c1.97,1.36,3.12,2.25,4.36,3.01,43.3,26.75,86.63,53.46,129.86,80.31,3.08,1.92,5.15,1.45,7.97-.3,41.84-25.94,83.75-51.77,125.64-77.64,2.57-1.59,5.09-3.27,8.06-5.19-1.49-1.02-2.21-1.58-2.99-2.04-43.7-25.72-87.43-51.4-131.07-77.23-3.36-1.99-5.68-1.11-8.57,.6-27.25,16.1-54.55,32.1-81.83,48.15-16.89,9.94-33.76,19.91-51.43,30.34Zm154.3,260.09c3.57-2.06,5.95-3.4,8.29-4.79,38.96-23.13,77.88-46.33,116.93-69.31,3.7-2.18,5.01-4.51,5-8.75-.15-43.29-.09-86.57-.11-129.86,0-1.77-.21-3.54-.37-6.22-2.42,1.28-4.18,2.12-5.86,3.11-39.44,23.4-78.84,46.88-118.37,70.12-4.26,2.5-5.64,5.27-5.62,10.11,.19,42.73,.11,85.46,.11,128.19,0,2.01,0,4.02,0,7.39Zm-36.78-.41c.15-1.98,.31-3.07,.31-4.17,.01-44.4-.04-88.8,.1-133.21,.01-3.86-1.87-5.51-4.72-7.25-38.66-23.63-77.28-47.33-115.92-71-1.62-.99-3.34-1.82-5.48-2.98-.12,1.87-.23,2.78-.23,3.69,0,44.59,.03,89.17-.08,133.76,0,3.46,1.33,5.27,4.16,7,39.31,23.99,78.55,48.1,117.81,72.16,1.05,.64,2.21,1.1,4.04,2Z"/><path class="e" d="M259.95,0c-7.54,1.36-15.08,2.76-22.63,4.06C116.95,24.76,25.25,116.04,5.33,236.02c-12.63,76.04,2.06,146.84,45.93,210.43,44.98,65.19,107.27,104.97,185.44,117.94,87.69,14.55,166.75-6.41,234.65-64.11,55.99-47.58,87.5-109.03,96.54-181.98,.35-2.83,1.31-5.58,1.99-8.36v259.95H0C0,379.92,0,189.96,0,0,86.65,0,173.3,0,259.95,0Z"/><path class="e" d="M569.88,259.95c-1.41-8.28-2.89-16.55-4.22-24.85C546.92,118.21,451.68,22.96,334.78,4.22,326.49,2.89,318.22,1.41,309.94,0c86.65,0,173.3,0,259.95,0V259.95Z"/><path class="e" d="M147.5,194.88c17.68-10.43,34.55-20.4,51.43-30.34,27.28-16.05,54.58-32.05,81.83-48.15,2.89-1.71,5.2-2.59,8.57-.6,43.64,25.83,87.37,51.51,131.07,77.23,.78,.46,1.5,1.02,2.99,2.04-2.97,1.92-5.49,3.6-8.06,5.19-41.89,25.87-83.8,51.7-125.64,77.64-2.82,1.75-4.89,2.22-7.97,.3-43.23-26.86-86.56-53.56-129.86-80.31-1.23-.76-2.39-1.65-4.36-3.01Z"/><path class="e" d="M301.8,454.97c0-3.37,0-5.38,0-7.39,0-42.73,.08-85.46-.11-128.19-.02-4.84,1.36-7.61,5.62-10.11,39.54-23.24,78.93-46.73,118.37-70.12,1.67-.99,3.44-1.83,5.86-3.11,.17,2.68,.37,4.45,.37,6.22,.02,43.29-.05,86.57,.11,129.86,.02,4.25-1.29,6.57-5,8.75-39.05,22.98-77.97,46.18-116.93,69.31-2.34,1.39-4.72,2.73-8.29,4.79Z"/><path class="d" d="M265.02,454.56c-1.83-.9-2.99-1.36-4.04-2-39.27-24.06-78.51-48.17-117.81-72.16-2.83-1.73-4.17-3.54-4.16-7,.11-44.59,.07-89.17,.08-133.76,0-.91,.11-1.82,.23-3.69,2.14,1.16,3.86,1.99,5.48,2.98,38.64,23.67,77.26,47.37,115.92,71,2.85,1.74,4.74,3.39,4.72,7.25-.14,44.4-.09,88.8-.1,133.21,0,1.09-.16,2.18-.31,4.17Z"/></g></g></g></svg>